<svg xmlns="http://www.w3.org/2000/svg" xmlns:xlink="http://www.w3.org/1999/xlink" width="960" height="576" viewBox="0 0 720 432"><defs><style>*{stroke-linejoin:round;stroke-linecap:butt}</style></defs><g id="figure_1"><path id="patch_1" d="M0 432h720V0H0z"/><g id="axes_1"><path id="patch_2" d="M54.24 390.04H709.2V32.16H54.24z"/><g id="matplotlib.axis_1"><g id="xtick_1"><path id="line2d_1" d="M71.09 390.04V32.16" clip-path="url(#p73b808ac1b)" style="fill:none;stroke-dasharray:1.85,.8;stroke-dashoffset:0;stroke:gray;stroke-opacity:.5;stroke-width:.5"/><g id="line2d_2"><defs><path id="mbdb48fd4f9" d="M0 0v3.5" style="stroke:gray;stroke-width:.8"/></defs><use xlink:href="#mbdb48fd4f9" x="71.09" y="390.04" style="fill:gray;stroke:gray;stroke-width:.8"/></g><g id="text_1" style="fill:gray" transform="matrix(.1 0 0 -.1 59.95 404.64)"><defs><path id="DejaVuSans-30" d="M2034 4250q-487 0-733-480-245-479-245-1442 0-959 245-1439 246-480 733-480 491 0 736 480 246 480 246 1439 0 963-246 1442-245 480-736 480zm0 500q785 0 1199-621 414-620 414-1801 0-1178-414-1799Q2819-91 2034-91q-784 0-1198 620-414 621-414 1799 0 1181 414 1801 414 621 1198 621z" transform="scale(.01563)"/><path id="DejaVuSans-2e" d="M684 794h660V0H684v794z" transform="scale(.01563)"/><path id="DejaVuSans-35" d="M691 4666h2478v-532H1269V2991q137 47 274 70 138 23 276 23 781 0 1237-428 457-428 457-1159 0-753-469-1171Q2575-91 1722-91q-294 0-599 50Q819 9 494 109v635q281-153 581-228t634-75q541 0 856 284 316 284 316 772 0 487-316 771-315 285-856 285-253 0-505-56-251-56-513-175v2344z" transform="scale(.01563)"/></defs><use xlink:href="#DejaVuSans-30"/><use xlink:href="#DejaVuSans-2e" transform="translate(63.62)"/><use xlink:href="#DejaVuSans-35" transform="translate(95.41)"/><use xlink:href="#DejaVuSans-30" transform="translate(159.03)"/></g></g><g id="xtick_2"><path id="line2d_3" d="M157.67 390.04V32.16" clip-path="url(#p73b808ac1b)" style="fill:none;stroke-dasharray:1.85,.8;stroke-dashoffset:0;stroke:gray;stroke-opacity:.5;stroke-width:.5"/><use xlink:href="#mbdb48fd4f9" id="line2d_4" x="157.67" y="390.04" style="fill:gray;stroke:gray;stroke-width:.8"/><g id="text_2" style="fill:gray" transform="matrix(.1 0 0 -.1 146.53 404.64)"><defs><path id="DejaVuSans-37" d="M525 4666h3000v-269L1831 0h-659l1594 4134H525v532z" transform="scale(.01563)"/></defs><use xlink:href="#DejaVuSans-30"/><use xlink:href="#DejaVuSans-2e" transform="translate(63.62)"/><use xlink:href="#DejaVuSans-37" transform="translate(95.41)"/><use xlink:href="#DejaVuSans-35" transform="translate(159.03)"/></g></g><g id="xtick_3"><path id="line2d_5" d="M244.25 390.04V32.16" clip-path="url(#p73b808ac1b)" style="fill:none;stroke-dasharray:1.85,.8;stroke-dashoffset:0;stroke:gray;stroke-opacity:.5;stroke-width:.5"/><use xlink:href="#mbdb48fd4f9" id="line2d_6" x="244.25" y="390.04" style="fill:gray;stroke:gray;stroke-width:.8"/><g id="text_3" style="fill:gray" transform="matrix(.1 0 0 -.1 233.11 404.64)"><defs><path id="DejaVuSans-31" d="M794 531h1031v3560L703 3866v575l1116 225h631V531h1031V0H794v531z" transform="scale(.01563)"/></defs><use xlink:href="#DejaVuSans-31"/><use xlink:href="#DejaVuSans-2e" transform="translate(63.62)"/><use xlink:href="#DejaVuSans-30" transform="translate(95.41)"/><use xlink:href="#DejaVuSans-30" transform="translate(159.03)"/></g></g><g id="xtick_4"><path id="line2d_7" d="M330.83 390.04V32.16" clip-path="url(#p73b808ac1b)" style="fill:none;stroke-dasharray:1.85,.8;stroke-dashoffset:0;stroke:gray;stroke-opacity:.5;stroke-width:.5"/><use xlink:href="#mbdb48fd4f9" id="line2d_8" x="330.83" y="390.04" style="fill:gray;stroke:gray;stroke-width:.8"/><g id="text_4" style="fill:gray" transform="matrix(.1 0 0 -.1 319.7 404.64)"><defs><path id="DejaVuSans-32" d="M1228 531h2203V0H469v531q359 372 979 998 621 627 780 809 303 340 423 576 121 236 121 464 0 372-261 606-261 235-680 235-297 0-627-103-329-103-704-313v638q381 153 712 231 332 78 607 78 725 0 1156-363 431-362 431-968 0-288-108-546-107-257-392-607-78-91-497-524-418-433-1181-1211z" transform="scale(.01563)"/></defs><use xlink:href="#DejaVuSans-31"/><use xlink:href="#DejaVuSans-2e" transform="translate(63.62)"/><use xlink:href="#DejaVuSans-32" transform="translate(95.41)"/><use xlink:href="#DejaVuSans-35" transform="translate(159.03)"/></g></g><g id="xtick_5"><path id="line2d_9" d="M417.41 390.04V32.16" clip-path="url(#p73b808ac1b)" style="fill:none;stroke-dasharray:1.85,.8;stroke-dashoffset:0;stroke:gray;stroke-opacity:.5;stroke-width:.5"/><use xlink:href="#mbdb48fd4f9" id="line2d_10" x="417.41" y="390.04" style="fill:gray;stroke:gray;stroke-width:.8"/><g id="text_5" style="fill:gray" transform="matrix(.1 0 0 -.1 406.28 404.64)"><use xlink:href="#DejaVuSans-31"/><use xlink:href="#DejaVuSans-2e" transform="translate(63.62)"/><use xlink:href="#DejaVuSans-35" transform="translate(95.41)"/><use xlink:href="#DejaVuSans-30" transform="translate(159.03)"/></g></g><g id="xtick_6"><path id="line2d_11" d="M504 390.04V32.16" clip-path="url(#p73b808ac1b)" style="fill:none;stroke-dasharray:1.85,.8;stroke-dashoffset:0;stroke:gray;stroke-opacity:.5;stroke-width:.5"/><use xlink:href="#mbdb48fd4f9" id="line2d_12" x="503.99" y="390.04" style="fill:gray;stroke:gray;stroke-width:.8"/><g id="text_6" style="fill:gray" transform="matrix(.1 0 0 -.1 492.86 404.64)"><use xlink:href="#DejaVuSans-31"/><use xlink:href="#DejaVuSans-2e" transform="translate(63.62)"/><use xlink:href="#DejaVuSans-37" transform="translate(95.41)"/><use xlink:href="#DejaVuSans-35" transform="translate(159.03)"/></g></g><g id="xtick_7"><path id="line2d_13" d="M590.57 390.04V32.16" clip-path="url(#p73b808ac1b)" style="fill:none;stroke-dasharray:1.85,.8;stroke-dashoffset:0;stroke:gray;stroke-opacity:.5;stroke-width:.5"/><use xlink:href="#mbdb48fd4f9" id="line2d_14" x="590.57" y="390.04" style="fill:gray;stroke:gray;stroke-width:.8"/><g id="text_7" style="fill:gray" transform="matrix(.1 0 0 -.1 579.44 404.64)"><use xlink:href="#DejaVuSans-32"/><use xlink:href="#DejaVuSans-2e" transform="translate(63.62)"/><use xlink:href="#DejaVuSans-30" transform="translate(95.41)"/><use xlink:href="#DejaVuSans-30" transform="translate(159.03)"/></g></g><g id="xtick_8"><path id="line2d_15" d="M677.15 390.04V32.16" clip-path="url(#p73b808ac1b)" style="fill:none;stroke-dasharray:1.85,.8;stroke-dashoffset:0;stroke:gray;stroke-opacity:.5;stroke-width:.5"/><use xlink:href="#mbdb48fd4f9" id="line2d_16" x="677.15" y="390.04" style="fill:gray;stroke:gray;stroke-width:.8"/><g id="text_8" style="fill:gray" transform="matrix(.1 0 0 -.1 666.02 404.64)"><use xlink:href="#DejaVuSans-32"/><use xlink:href="#DejaVuSans-2e" transform="translate(63.62)"/><use xlink:href="#DejaVuSans-32" transform="translate(95.41)"/><use xlink:href="#DejaVuSans-35" transform="translate(159.03)"/></g></g><g id="text_9" style="fill:#dcdcdc" transform="matrix(.1 0 0 -.1 321.52 418.37)"><defs><path id="DejaVuSansMono-4f" d="M2828 2328q0 1028-211 1469t-692 441q-478 0-689-441t-211-1469q0-1025 211-1466 211-440 689-440 481 0 692 439t211 1467zm660 0q0-1219-386-1819T1925-91q-791 0-1175 597T366 2328q0 1222 386 1822t1173 600q791 0 1177-600t386-1822z" transform="scale(.01563)"/><path id="DejaVuSansMono-75" d="M609 1325v2169h575V1325q0-472 167-694 168-222 518-222 406 0 621 286 216 286 216 821v1978h578V0h-578v525q-153-303-417-460-264-156-617-156-538 0-801 352-262 352-262 1064z" transform="scale(.01563)"/><path id="DejaVuSansMono-74" d="M1919 4494v-994h1306v-447H1919V1153q0-387 147-541 147-153 512-153h647V0h-703q-647 0-913 259-265 260-265 894v1900H409v447h935v994h575z" transform="scale(.01563)"/><path id="DejaVuSansMono-70" d="M1172 441v-1772H594v4831h578v-447q144 260 383 395 239 136 551 136 635 0 996-491 361-490 361-1359 0-853-363-1339-362-486-994-486-318 0-558 136-239 136-376 396zm1687 1306q0 669-211 1009-210 341-626 341-419 0-635-342-215-342-215-1008 0-663 215-1007 216-343 635-343 416 0 626 340 211 341 211 1010z" transform="scale(.01563)"/><path id="DejaVuSansMono-46" d="M728 4666h2747v-532H1363V2759h1915v-531H1363V0H728v4666z" transform="scale(.01563)"/><path id="DejaVuSansMono-69" d="M800 3500h1472V447h1141V0H556v447h1141v2606H800v447zm897 1363h575v-729h-575v729z" transform="scale(.01563)"/><path id="DejaVuSansMono-6c" d="M1997 1269q0-388 142-585 142-196 420-196h672V0h-728q-515 0-798 331-283 332-283 938v3178H500v450h1497V1269z" transform="scale(.01563)"/><path id="DejaVuSansMono-65" d="M3475 1894v-281H984v-19q0-572 298-885 299-312 843-312 275 0 575 87 300 88 641 266V178Q3013 44 2708-23q-305-68-589-68-816 0-1276 489-459 490-459 1349 0 837 450 1337t1200 500q669 0 1055-453t386-1237zm-575 169q-12 506-239 770t-652 264q-415 0-684-275t-319-763l1894 4z" transform="scale(.01563)"/><path id="DejaVuSansMono-73" d="M3041 3378v-562q-247 143-497 215t-510 72q-390 0-583-127-192-126-192-385 0-235 144-351 144-115 716-224l231-44q428-81 648-325 221-244 221-634 0-519-369-812Q2481-91 1825-91q-259 0-544 55-284 55-615 164v594q322-166 615-249 294-82 557-82 381 0 590 154 210 155 210 433 0 400-766 553l-25 7-216 43q-497 97-725 327t-228 626q0 504 340 777 341 273 973 273 281 0 540-52 260-51 510-154z" transform="scale(.01563)"/><path id="DejaVuSansMono-7a" d="M709 3506h2541v-525L1241 469h2009V0H634v531l2010 2516H709v459z" transform="scale(.01563)"/><path id="DejaVuSansMono-28" d="M2766 4856q-416-712-621-1420-204-708-204-1427 0-715 204-1425 205-709 621-1428h-500q-472 744-704 1448-231 705-231 1405 0 697 231 1403 232 707 704 1444h500z" transform="scale(.01563)"/><path id="DejaVuSansMono-4b" d="M428 4666h635V2591l1971 2075h741L1959 2759 3828 0h-762L1544 2338l-481-513V0H428v4666z" transform="scale(.01563)"/><path id="DejaVuSansMono-42" d="M1153 2228V519h747q550 0 784 192 235 192 235 633 0 456-247 670t-772 214h-747zm0 1919V2741h735q456 0 660 175 205 175 205 565 0 353-202 509-201 157-663 157h-735zm-634 519h1381q716 0 1103-310 388-309 388-875 0-428-205-675t-614-309q459-69 720-393 261-323 261-823 0-634-416-958Q2722 0 1900 0H519v4666z" transform="scale(.01563)"/><path id="DejaVuSansMono-29" d="M1088 4856h500q471-737 702-1444 232-706 232-1403 0-703-232-1409-231-706-702-1444h-500q415 725 620 1434 205 710 205 1419 0 713-205 1422-205 710-620 1425z" transform="scale(.01563)"/></defs><use xlink:href="#DejaVuSansMono-4f"/><use xlink:href="#DejaVuSansMono-75" transform="translate(60.2)"/><use xlink:href="#DejaVuSansMono-74" transform="translate(120.41)"/><use xlink:href="#DejaVuSansMono-70" transform="translate(180.62)"/><use xlink:href="#DejaVuSansMono-75" transform="translate(240.82)"/><use xlink:href="#DejaVuSansMono-74" transform="translate(301.03)"/><use xlink:href="#DejaVuSansMono-20" transform="translate(361.23)"/><use xlink:href="#DejaVuSansMono-46" transform="translate(421.44)"/><use xlink:href="#DejaVuSansMono-69" transform="translate(481.64)"/><use xlink:href="#DejaVuSansMono-6c" transform="translate(541.85)"/><use xlink:href="#DejaVuSansMono-65" transform="translate(602.05)"/><use xlink:href="#DejaVuSansMono-73" transform="translate(662.26)"/><use xlink:href="#DejaVuSansMono-69" transform="translate(722.46)"/><use xlink:href="#DejaVuSansMono-7a" transform="translate(782.67)"/><use xlink:href="#DejaVuSansMono-65" transform="translate(842.87)"/><use xlink:href="#DejaVuSansMono-20" transform="translate(903.08)"/><use xlink:href="#DejaVuSansMono-28" transform="translate(963.28)"/><use xlink:href="#DejaVuSansMono-4b" transform="translate(1023.49)"/><use xlink:href="#DejaVuSansMono-42" transform="translate(1083.7)"/><use xlink:href="#DejaVuSansMono-29" transform="translate(1143.9)"/></g><g id="text_10" style="fill:gray" transform="matrix(.1 0 0 -.1 690.32 417.32)"><defs><path id="DejaVuSans-65" d="M3597 1894v-281H953q38-594 358-905t892-311q331 0 642 81t618 244V178Q3153 47 2828-22t-659-69q-838 0-1327 487-489 488-489 1320 0 859 464 1363 464 505 1252 505 706 0 1117-455 411-454 411-1235zm-575 169q-6 471-264 752-258 282-683 282-481 0-770-272t-333-766l2050 4z" transform="scale(.01563)"/></defs><use xlink:href="#DejaVuSans-31"/><use xlink:href="#DejaVuSans-65" transform="translate(63.62)"/><use xlink:href="#DejaVuSans-37" transform="translate(125.15)"/></g></g><g id="matplotlib.axis_2"><g id="ytick_1"><path id="line2d_17" d="M54.24 362.84H709.2" clip-path="url(#p73b808ac1b)" style="fill:none;stroke-dasharray:1.85,.8;stroke-dashoffset:0;stroke:gray;stroke-opacity:.5;stroke-width:.5"/><g id="line2d_18"><defs><path id="m966b80ab06" d="M0 0h-3.5" style="stroke:gray;stroke-width:.8"/></defs><use xlink:href="#m966b80ab06" x="54.24" y="362.84" style="fill:gray;stroke:gray;stroke-width:.8"/></g><g id="text_11" style="fill:gray" transform="matrix(.1 0 0 -.1 24.98 366.64)"><defs><path id="DejaVuSans-33" d="M2597 2516q453-97 707-404 255-306 255-756 0-690-475-1069Q2609-91 1734-91q-293 0-604 58T488 141v609q262-153 574-231 313-78 654-78 593 0 904 234t311 681q0 413-289 645-289 233-804 233h-544v519h569q465 0 712 186t247 536q0 359-255 551-254 193-729 193-260 0-557-57-297-56-653-174v562q360 100 674 150t592 50q719 0 1137-327 419-326 419-882 0-388-222-655t-631-370z" transform="scale(.01563)"/></defs><use xlink:href="#DejaVuSans-33"/><use xlink:href="#DejaVuSans-35" transform="translate(63.62)"/><use xlink:href="#DejaVuSans-2e" transform="translate(127.25)"/><use xlink:href="#DejaVuSans-35" transform="translate(159.03)"/></g></g><g id="ytick_2"><path id="line2d_19" d="M54.24 315.94H709.2" clip-path="url(#p73b808ac1b)" style="fill:none;stroke-dasharray:1.85,.8;stroke-dashoffset:0;stroke:gray;stroke-opacity:.5;stroke-width:.5"/><use xlink:href="#m966b80ab06" id="line2d_20" x="54.24" y="315.94" style="fill:gray;stroke:gray;stroke-width:.8"/><g id="text_12" style="fill:gray" transform="matrix(.1 0 0 -.1 24.98 319.74)"><defs><path id="DejaVuSans-36" d="M2113 2584q-425 0-674-291-248-290-248-796 0-503 248-796 249-292 674-292t673 292q248 293 248 796 0 506-248 796-248 291-673 291zm1253 1979v-575q-238 112-480 171-242 60-480 60-625 0-955-422-329-422-376-1275 184 272 462 417 279 145 613 145 703 0 1111-427 408-426 408-1160 0-719-425-1154Q2819-91 2113-91q-810 0-1238 620-428 621-428 1799 0 1106 525 1764t1409 658q238 0 480-47t505-140z" transform="scale(.01563)"/></defs><use xlink:href="#DejaVuSans-33"/><use xlink:href="#DejaVuSans-36" transform="translate(63.62)"/><use xlink:href="#DejaVuSans-2e" transform="translate(127.25)"/><use xlink:href="#DejaVuSans-30" transform="translate(159.03)"/></g></g><g id="ytick_3"><path id="line2d_21" d="M54.24 269.04H709.2" clip-path="url(#p73b808ac1b)" style="fill:none;stroke-dasharray:1.85,.8;stroke-dashoffset:0;stroke:gray;stroke-opacity:.5;stroke-width:.5"/><use xlink:href="#m966b80ab06" id="line2d_22" x="54.24" y="269.04" style="fill:gray;stroke:gray;stroke-width:.8"/><g id="text_13" style="fill:gray" transform="matrix(.1 0 0 -.1 24.98 272.84)"><use xlink:href="#DejaVuSans-33"/><use xlink:href="#DejaVuSans-36" transform="translate(63.62)"/><use xlink:href="#DejaVuSans-2e" transform="translate(127.25)"/><use xlink:href="#DejaVuSans-35" transform="translate(159.03)"/></g></g><g id="ytick_4"><path id="line2d_23" d="M54.24 222.15H709.2" clip-path="url(#p73b808ac1b)" style="fill:none;stroke-dasharray:1.85,.8;stroke-dashoffset:0;stroke:gray;stroke-opacity:.5;stroke-width:.5"/><use xlink:href="#m966b80ab06" id="line2d_24" x="54.24" y="222.15" style="fill:gray;stroke:gray;stroke-width:.8"/><g id="text_14" style="fill:gray" transform="matrix(.1 0 0 -.1 24.98 225.94)"><use xlink:href="#DejaVuSans-33"/><use xlink:href="#DejaVuSans-37" transform="translate(63.62)"/><use xlink:href="#DejaVuSans-2e" transform="translate(127.25)"/><use xlink:href="#DejaVuSans-30" transform="translate(159.03)"/></g></g><g id="ytick_5"><path id="line2d_25" d="M54.24 175.25H709.2" clip-path="url(#p73b808ac1b)" style="fill:none;stroke-dasharray:1.85,.8;stroke-dashoffset:0;stroke:gray;stroke-opacity:.5;stroke-width:.5"/><use xlink:href="#m966b80ab06" id="line2d_26" x="54.24" y="175.25" style="fill:gray;stroke:gray;stroke-width:.8"/><g id="text_15" style="fill:gray" transform="matrix(.1 0 0 -.1 24.98 179.05)"><use xlink:href="#DejaVuSans-33"/><use xlink:href="#DejaVuSans-37" transform="translate(63.62)"/><use xlink:href="#DejaVuSans-2e" transform="translate(127.25)"/><use xlink:href="#DejaVuSans-35" transform="translate(159.03)"/></g></g><g id="ytick_6"><path id="line2d_27" d="M54.24 128.35H709.2" clip-path="url(#p73b808ac1b)" style="fill:none;stroke-dasharray:1.85,.8;stroke-dashoffset:0;stroke:gray;stroke-opacity:.5;stroke-width:.5"/><use xlink:href="#m966b80ab06" id="line2d_28" x="54.24" y="128.35" style="fill:gray;stroke:gray;stroke-width:.8"/><g id="text_16" style="fill:gray" transform="matrix(.1 0 0 -.1 24.98 132.15)"><defs><path id="DejaVuSans-38" d="M2034 2216q-450 0-708-241-257-241-257-662 0-422 257-663 258-241 708-241t709 242q260 243 260 662 0 421-258 662-257 241-711 241zm-631 268q-406 100-633 378-226 279-226 679 0 559 398 884 399 325 1092 325 697 0 1094-325t397-884q0-400-227-679-226-278-629-378 456-106 710-416 255-309 255-755 0-679-414-1042Q2806-91 2034-91q-771 0-1186 362-414 363-414 1042 0 446 256 755 257 310 713 416zm-231 997q0-362 226-565 227-203 636-203 407 0 636 203 230 203 230 565 0 363-230 566-229 203-636 203-409 0-636-203-226-203-226-566z" transform="scale(.01563)"/></defs><use xlink:href="#DejaVuSans-33"/><use xlink:href="#DejaVuSans-38" transform="translate(63.62)"/><use xlink:href="#DejaVuSans-2e" transform="translate(127.25)"/><use xlink:href="#DejaVuSans-30" transform="translate(159.03)"/></g></g><g id="ytick_7"><path id="line2d_29" d="M54.24 81.45H709.2" clip-path="url(#p73b808ac1b)" style="fill:none;stroke-dasharray:1.85,.8;stroke-dashoffset:0;stroke:gray;stroke-opacity:.5;stroke-width:.5"/><use xlink:href="#m966b80ab06" id="line2d_30" x="54.24" y="81.45" style="fill:gray;stroke:gray;stroke-width:.8"/><g id="text_17" style="fill:gray" transform="matrix(.1 0 0 -.1 24.98 85.25)"><use xlink:href="#DejaVuSans-33"/><use xlink:href="#DejaVuSans-38" transform="translate(63.62)"/><use xlink:href="#DejaVuSans-2e" transform="translate(127.25)"/><use xlink:href="#DejaVuSans-35" transform="translate(159.03)"/></g></g><g id="ytick_8"><path id="line2d_31" d="M54.24 34.55H709.2" clip-path="url(#p73b808ac1b)" style="fill:none;stroke-dasharray:1.85,.8;stroke-dashoffset:0;stroke:gray;stroke-opacity:.5;stroke-width:.5"/><use xlink:href="#m966b80ab06" id="line2d_32" x="54.24" y="34.55" style="fill:gray;stroke:gray;stroke-width:.8"/><g id="text_18" style="fill:gray" transform="matrix(.1 0 0 -.1 24.98 38.35)"><defs><path id="DejaVuSans-39" d="M703 97v575q238-113 481-172 244-59 479-59 625 0 954 420 330 420 377 1277-181-269-460-413-278-144-615-144-700 0-1108 423-408 424-408 1159 0 718 425 1152 425 435 1131 435 810 0 1236-621 427-620 427-1801 0-1103-524-1761Q2575-91 1691-91q-238 0-482 47Q966 3 703 97zm1256 1978q425 0 673 290 249 291 249 798 0 503-249 795-248 292-673 292t-673-292q-248-292-248-795 0-507 248-798 248-290 673-290z" transform="scale(.01563)"/></defs><use xlink:href="#DejaVuSans-33"/><use xlink:href="#DejaVuSans-39" transform="translate(63.62)"/><use xlink:href="#DejaVuSans-2e" transform="translate(127.25)"/><use xlink:href="#DejaVuSans-30" transform="translate(159.03)"/></g></g><g id="text_19" style="fill:#dcdcdc" transform="matrix(0 -.1 -.1 0 18.9 232.17)"><defs><path id="DejaVuSansMono-57" d="M0 4666h616l447-3788 531 2506h659l538-2512 447 3794h615L3156 0h-597l-634 2772L1294 0H697L0 4666z" transform="scale(.01563)"/><path id="DejaVuSansMono-2d" d="M1113 2009h1628v-512H1113v512z" transform="scale(.01563)"/><path id="DejaVuSansMono-58" d="M269 4666h678l1025-1760 1044 1760h678L2297 2472 3794 0h-678L1972 2009 738 0H56l1563 2472L269 4666z" transform="scale(.01563)"/><path id="DejaVuSansMono-50" d="M1247 4147V2394h731q438 0 683 231t245 647q0 416-244 645-243 230-684 230h-731zm-631 519h1362q781 0 1184-355 404-355 404-1039 0-691-402-1044-401-353-1186-353h-731V0H616v4666z" transform="scale(.01563)"/><path id="DejaVuSansMono-53" d="M3163 4506v-640q-288 184-577 278t-583 94q-447 0-706-208t-259-561q0-310 170-473 170-162 636-271l331-75q656-153 956-481t300-894q0-666-413-1016Q2606-91 1819-91q-328 0-660 71-331 70-665 211v672q359-229 679-335 321-106 646-106 478 0 743 214 266 214 266 598 0 350-183 534-182 185-636 285l-337 78q-650 147-944 444t-294 797q0 625 420 1001 421 377 1118 377 269 0 565-61 297-61 626-183z" transform="scale(.01563)"/><path id="DejaVuSansMono-4e" d="M434 4666h800L2809 825v3841h610V0h-800L1044 3841V0H434v4666z" transform="scale(.01563)"/><path id="DejaVuSansMono-52" d="M2375 2203q244-62 416-236 172-173 428-692L3853 0h-678l-556 1178q-241 503-433 648-192 146-502 146h-603V0H447v4666h1300q769 0 1178-347t409-1003q0-463-252-755-251-292-707-358zM1081 4147V2491h691q453 0 675 203t222 622q0 403-236 617t-686 214h-666z" transform="scale(.01563)"/></defs><use xlink:href="#DejaVuSansMono-57"/><use xlink:href="#DejaVuSansMono-2d" transform="translate(60.2)"/><use xlink:href="#DejaVuSansMono-58" transform="translate(120.41)"/><use xlink:href="#DejaVuSansMono-50" transform="translate(180.62)"/><use xlink:href="#DejaVuSansMono-53" transform="translate(240.82)"/><use xlink:href="#DejaVuSansMono-4e" transform="translate(301.03)"/><use xlink:href="#DejaVuSansMono-52" transform="translate(361.23)"/></g></g><g id="line2d_33"><path d="m625.35 48.43-215.3 81.17-139.92 67.9-112.77 76.68-73.04 70.17" clip-path="url(#p73b808ac1b)" style="fill:none;stroke-dasharray:9.6,2.4,1.5,2.4;stroke-dashoffset:0;stroke:#fcbba1;stroke-width:1.5"/><defs><path id="ma547243aca" d="M0 3a3 3 0 1 0 0-6 3 3 0 0 0 0 6z" style="stroke:#fcbba1"/></defs><g clip-path="url(#p73b808ac1b)"><use xlink:href="#ma547243aca" x="625.35" y="48.43" style="fill:#fcbba1;stroke:#fcbba1"/><use xlink:href="#ma547243aca" x="410.05" y="129.6" style="fill:#fcbba1;stroke:#fcbba1"/><use xlink:href="#ma547243aca" x="270.13" y="197.51" style="fill:#fcbba1;stroke:#fcbba1"/><use xlink:href="#ma547243aca" x="157.36" y="274.18" style="fill:#fcbba1;stroke:#fcbba1"/><use xlink:href="#ma547243aca" x="84.32" y="344.35" style="fill:#fcbba1;stroke:#fcbba1"/></g></g><g id="line2d_34"><path d="m621.2 72.74-223.87 89.6-136.9 66.36-104.72 71.9-71.7 68.3" clip-path="url(#p73b808ac1b)" style="fill:none;stroke-dasharray:9.6,2.4,1.5,2.4;stroke-dashoffset:0;stroke:#fb694a;stroke-width:1.5"/><defs><path id="m6045bdc98b" d="M0 3a3 3 0 1 0 0-6 3 3 0 0 0 0 6z" style="stroke:#fb694a"/></defs><g clip-path="url(#p73b808ac1b)"><use xlink:href="#m6045bdc98b" x="621.2" y="72.74" style="fill:#fb694a;stroke:#fb694a"/><use xlink:href="#m6045bdc98b" x="397.33" y="162.35" style="fill:#fb694a;stroke:#fb694a"/><use xlink:href="#m6045bdc98b" x="260.43" y="228.7" style="fill:#fb694a;stroke:#fb694a"/><use xlink:href="#m6045bdc98b" x="155.71" y="300.61" style="fill:#fb694a;stroke:#fb694a"/><use xlink:href="#m6045bdc98b" x="84.02" y="368.91" style="fill:#fb694a;stroke:#fb694a"/></g></g><g id="line2d_35"><path d="M679.43 89 465.2 160.62l-156.7 65.07-126.7 74.34-84.11 73.74" clip-path="url(#p73b808ac1b)" style="fill:none;stroke-dasharray:9.6,2.4,1.5,2.4;stroke-dashoffset:0;stroke:#ca181d;stroke-width:1.5"/><defs><path id="ma722630ca9" d="M0 3a3 3 0 1 0 0-6 3 3 0 0 0 0 6z" style="stroke:#ca181d"/></defs><g clip-path="url(#p73b808ac1b)"><use xlink:href="#ma722630ca9" x="679.43" y="89" style="fill:#ca181d;stroke:#ca181d"/><use xlink:href="#ma722630ca9" x="465.21" y="160.62" style="fill:#ca181d;stroke:#ca181d"/><use xlink:href="#ma722630ca9" x="308.5" y="225.69" style="fill:#ca181d;stroke:#ca181d"/><use xlink:href="#ma722630ca9" x="181.8" y="300.03" style="fill:#ca181d;stroke:#ca181d"/><use xlink:href="#ma722630ca9" x="97.7" y="373.77" style="fill:#ca181d;stroke:#ca181d"/></g></g><path id="patch_3" d="M54.24 390.04V32.16" style="fill:none;stroke:gray;stroke-width:.8;stroke-linejoin:miter;stroke-linecap:square"/><path id="patch_4" d="M709.2 390.04V32.16" style="fill:none;stroke:gray;stroke-width:.8;stroke-linejoin:miter;stroke-linecap:square"/><path id="patch_5" d="M54.24 390.04H709.2" style="fill:none;stroke:gray;stroke-width:.8;stroke-linejoin:miter;stroke-linecap:square"/><path id="patch_6" d="M54.24 32.16H709.2" style="fill:none;stroke:gray;stroke-width:.8;stroke-linejoin:miter;stroke-linecap:square"/><g id="text_20" style="fill:#fff" transform="matrix(.08 0 0 -.08 613.3 38.43)"><defs><path id="DejaVuSans-51" d="M2522 4238q-688 0-1093-513-404-512-404-1397 0-881 404-1394 405-512 1093-512 687 0 1089 512 402 513 402 1394 0 885-402 1397-402 513-1089 513zM3406 84l832-909h-763L2784-78q-103-6-158-9-54-4-104-4-984 0-1574 658-589 658-589 1761 0 1106 589 1764 590 658 1574 658 981 0 1568-658 588-658 588-1764 0-812-327-1391-326-578-945-853z" transform="scale(.01563)"/></defs><use xlink:href="#DejaVuSans-51"/><use xlink:href="#DejaVuSans-32" transform="translate(78.71)"/><use xlink:href="#DejaVuSans-30" transform="translate(142.33)"/><use xlink:href="#DejaVuSans-2e" transform="translate(205.96)"/><use xlink:href="#DejaVuSans-30" transform="translate(237.74)"/></g><g id="text_21" style="fill:#fff" transform="matrix(.08 0 0 -.08 398 119.6)"><use xlink:href="#DejaVuSans-51"/><use xlink:href="#DejaVuSans-32" transform="translate(78.71)"/><use xlink:href="#DejaVuSans-35" transform="translate(142.33)"/><use xlink:href="#DejaVuSans-2e" transform="translate(205.96)"/><use xlink:href="#DejaVuSans-30" transform="translate(237.74)"/></g><g id="text_22" style="fill:#fff" transform="matrix(.08 0 0 -.08 258.07 187.5)"><use xlink:href="#DejaVuSans-51"/><use xlink:href="#DejaVuSans-33" transform="translate(78.71)"/><use xlink:href="#DejaVuSans-30" transform="translate(142.33)"/><use xlink:href="#DejaVuSans-2e" transform="translate(205.96)"/><use xlink:href="#DejaVuSans-30" transform="translate(237.74)"/></g><g id="text_23" style="fill:#fff" transform="matrix(.08 0 0 -.08 145.3 264.18)"><use xlink:href="#DejaVuSans-51"/><use xlink:href="#DejaVuSans-33" transform="translate(78.71)"/><use xlink:href="#DejaVuSans-35" transform="translate(142.33)"/><use xlink:href="#DejaVuSans-2e" transform="translate(205.96)"/><use xlink:href="#DejaVuSans-30" transform="translate(237.74)"/></g><g id="text_24" style="fill:#fff" transform="matrix(.08 0 0 -.08 72.26 334.35)"><defs><path id="DejaVuSans-34" d="M2419 4116 825 1625h1594v2491zm-166 550h794V1625h666v-525h-666V0h-628v1100H313v609l1940 2957z" transform="scale(.01563)"/></defs><use xlink:href="#DejaVuSans-51"/><use xlink:href="#DejaVuSans-34" transform="translate(78.71)"/><use xlink:href="#DejaVuSans-30" transform="translate(142.33)"/><use xlink:href="#DejaVuSans-2e" transform="translate(205.96)"/><use xlink:href="#DejaVuSans-30" transform="translate(237.74)"/></g><g id="text_25" style="fill:#fff" transform="matrix(.08 0 0 -.08 609.15 57.74)"><use xlink:href="#DejaVuSans-51"/><use xlink:href="#DejaVuSans-32" transform="translate(78.71)"/><use xlink:href="#DejaVuSans-30" transform="translate(142.33)"/><use xlink:href="#DejaVuSans-2e" transform="translate(205.96)"/><use xlink:href="#DejaVuSans-30" transform="translate(237.74)"/></g><g id="text_26" style="fill:#fff" transform="matrix(.08 0 0 -.08 385.28 147.35)"><use xlink:href="#DejaVuSans-51"/><use xlink:href="#DejaVuSans-32" transform="translate(78.71)"/><use xlink:href="#DejaVuSans-35" transform="translate(142.33)"/><use xlink:href="#DejaVuSans-2e" transform="translate(205.96)"/><use xlink:href="#DejaVuSans-30" transform="translate(237.74)"/></g><g id="text_27" style="fill:#fff" transform="matrix(.08 0 0 -.08 248.37 213.7)"><use xlink:href="#DejaVuSans-51"/><use xlink:href="#DejaVuSans-33" transform="translate(78.71)"/><use xlink:href="#DejaVuSans-30" transform="translate(142.33)"/><use xlink:href="#DejaVuSans-2e" transform="translate(205.96)"/><use xlink:href="#DejaVuSans-30" transform="translate(237.74)"/></g><g id="text_28" style="fill:#fff" transform="matrix(.08 0 0 -.08 143.65 285.6)"><use xlink:href="#DejaVuSans-51"/><use xlink:href="#DejaVuSans-33" transform="translate(78.71)"/><use xlink:href="#DejaVuSans-35" transform="translate(142.33)"/><use xlink:href="#DejaVuSans-2e" transform="translate(205.96)"/><use xlink:href="#DejaVuSans-30" transform="translate(237.74)"/></g><g id="text_29" style="fill:#fff" transform="matrix(.08 0 0 -.08 71.96 353.9)"><use xlink:href="#DejaVuSans-51"/><use xlink:href="#DejaVuSans-34" transform="translate(78.71)"/><use xlink:href="#DejaVuSans-30" transform="translate(142.33)"/><use xlink:href="#DejaVuSans-2e" transform="translate(205.96)"/><use xlink:href="#DejaVuSans-30" transform="translate(237.74)"/></g><g id="text_30" style="fill:#fff" transform="matrix(.08 0 0 -.08 667.37 69)"><use xlink:href="#DejaVuSans-51"/><use xlink:href="#DejaVuSans-32" transform="translate(78.71)"/><use xlink:href="#DejaVuSans-30" transform="translate(142.33)"/><use xlink:href="#DejaVuSans-2e" transform="translate(205.96)"/><use xlink:href="#DejaVuSans-30" transform="translate(237.74)"/></g><g id="text_31" style="fill:#fff" transform="matrix(.08 0 0 -.08 453.15 140.62)"><use xlink:href="#DejaVuSans-51"/><use xlink:href="#DejaVuSans-32" transform="translate(78.71)"/><use xlink:href="#DejaVuSans-35" transform="translate(142.33)"/><use xlink:href="#DejaVuSans-2e" transform="translate(205.96)"/><use xlink:href="#DejaVuSans-30" transform="translate(237.74)"/></g><g id="text_32" style="fill:#fff" transform="matrix(.08 0 0 -.08 296.45 205.69)"><use xlink:href="#DejaVuSans-51"/><use xlink:href="#DejaVuSans-33" transform="translate(78.71)"/><use xlink:href="#DejaVuSans-30" transform="translate(142.33)"/><use xlink:href="#DejaVuSans-2e" transform="translate(205.96)"/><use xlink:href="#DejaVuSans-30" transform="translate(237.74)"/></g><g id="text_33" style="fill:#fff" transform="matrix(.08 0 0 -.08 169.75 280.03)"><use xlink:href="#DejaVuSans-51"/><use xlink:href="#DejaVuSans-33" transform="translate(78.71)"/><use xlink:href="#DejaVuSans-35" transform="translate(142.33)"/><use xlink:href="#DejaVuSans-2e" transform="translate(205.96)"/><use xlink:href="#DejaVuSans-30" transform="translate(237.74)"/></g><g id="text_34" style="fill:#fff" transform="matrix(.08 0 0 -.08 85.64 353.77)"><use xlink:href="#DejaVuSans-51"/><use xlink:href="#DejaVuSans-34" transform="translate(78.71)"/><use xlink:href="#DejaVuSans-30" transform="translate(142.33)"/><use xlink:href="#DejaVuSans-2e" transform="translate(205.96)"/><use xlink:href="#DejaVuSans-30" transform="translate(237.74)"/></g><g id="text_35" style="fill:#fff" transform="matrix(.12 0 0 -.12 248.07 20.16)"><defs><path id="DejaVuSansMono-43" d="M3353 166Q3113 38 2859-26q-253-65-537-65-897 0-1393 634-495 635-495 1785 0 1144 498 1783 499 639 1390 639 284 0 537-64 254-64 494-192v-647q-231 191-497 291-265 100-534 100-616 0-922-475t-306-1435q0-956 306-1431t922-475q275 0 539 100t492 291V166z" transform="scale(.01563)"/><path id="DejaVuSansMono-6f" d="M1925 3097q-437 0-662-341-225-340-225-1009 0-666 225-1008t662-342q441 0 666 342t225 1008q0 669-225 1009-225 341-666 341zm0 487q728 0 1114-472 386-471 386-1365 0-897-385-1368Q2656-91 1925-91q-728 0-1113 470-384 471-384 1368 0 894 384 1365 385 472 1113 472z" transform="scale(.01563)"/><path id="DejaVuSansMono-64" d="M2681 3053v1810h575V0h-575v441q-143-260-383-396-239-136-551-136-634 0-999 492-364 493-364 1358 0 854 366 1339 366 486 997 486 316 0 556-136 241-135 378-395zM991 1747q0-669 212-1010 213-340 628-340 416 0 633 343 217 344 217 1007 0 666-217 1008t-633 342q-415 0-628-341-212-340-212-1009z" transform="scale(.01563)"/><path id="DejaVuSansMono-63" d="M3316 178Q3084 44 2839-23q-245-68-501-68-813 0-1271 487-458 488-458 1351 0 862 458 1349 458 488 1271 488 253 0 493-66 241-65 485-202v-603q-228 203-458 293-230 91-520 91-541 0-832-350-290-350-290-1000 0-647 292-999 292-351 830-351 300 0 537 92 238 92 441 286V178z" transform="scale(.01563)"/><path id="DejaVuSansMono-6d" d="M2113 3144q106 225 270 332 164 108 395 108 422 0 595-327 174-326 174-1229V0h-525v2003q0 741-83 920-83 180-301 180-250 0-343-192-92-192-92-908V0h-525v2003q0 750-89 925t-320 175q-228 0-317-192t-89-908V0H341v3500h522v-300q103 188 257 286 155 98 352 98 237 0 395-109t246-331z" transform="scale(.01563)"/><path id="DejaVuSansMono-61" d="M2194 1759h-191q-503 0-758-177-254-176-254-526 0-315 190-490 191-175 528-175 475 0 747 329 272 330 275 911v128h-537zm1115 238V0h-578v519q-184-313-464-462-279-148-679-148-535 0-854 302-318 302-318 808 0 584 392 887t1151 303h772v91q-3 419-213 608-209 189-668 189-294 0-594-85-300-84-584-246v575q319 122 611 182 292 61 567 61 434 0 742-128t499-384q118-156 168-386t50-689z" transform="scale(.01563)"/><path id="DejaVuSansMono-72" d="M3609 2778q-184 144-375 209-190 66-418 66-538 0-823-338-284-337-284-974V0h-578v3500h578v-684q144 372 442 570 299 198 708 198 213 0 397-53 185-53 353-165v-588z" transform="scale(.01563)"/><path id="DejaVuSansMono-6e" d="M3284 2169V0h-578v2169q0 472-166 693-165 222-518 222-403 0-621-286-217-285-217-820V0H609v3500h575v-525q154 300 416 454 263 155 622 155 534 0 798-352 264-351 264-1063z" transform="scale(.01563)"/><path id="DejaVuSansMono-3a" d="M1528 3322h788v-947h-788v947zm0-2369h788V0h-788v953z" transform="scale(.01563)"/><path id="DejaVuSansMono-76" d="M313 3500h596L1925 563l1019 2937h597L2297 0h-741L313 3500z" transform="scale(.01563)"/></defs><use xlink:href="#DejaVuSansMono-43"/><use xlink:href="#DejaVuSansMono-6f" transform="translate(60.2)"/><use xlink:href="#DejaVuSansMono-64" transform="translate(120.41)"/><use xlink:href="#DejaVuSansMono-65" transform="translate(180.62)"/><use xlink:href="#DejaVuSansMono-63" transform="translate(240.82)"/><use xlink:href="#DejaVuSansMono-20" transform="translate(301.03)"/><use xlink:href="#DejaVuSansMono-43" transform="translate(361.23)"/><use xlink:href="#DejaVuSansMono-6f" transform="translate(421.44)"/><use xlink:href="#DejaVuSansMono-6d" transform="translate(481.64)"/><use xlink:href="#DejaVuSansMono-70" transform="translate(541.85)"/><use xlink:href="#DejaVuSansMono-61" transform="translate(602.05)"/><use xlink:href="#DejaVuSansMono-72" transform="translate(662.26)"/><use xlink:href="#DejaVuSansMono-69" transform="translate(722.46)"/><use xlink:href="#DejaVuSansMono-73" transform="translate(782.67)"/><use xlink:href="#DejaVuSansMono-6f" transform="translate(842.87)"/><use xlink:href="#DejaVuSansMono-6e" transform="translate(903.08)"/><use xlink:href="#DejaVuSansMono-3a" transform="translate(963.28)"/><use xlink:href="#DejaVuSansMono-20" transform="translate(1023.49)"/><use xlink:href="#DejaVuSansMono-57" transform="translate(1083.7)"/><use xlink:href="#DejaVuSansMono-2d" transform="translate(1143.9)"/><use xlink:href="#DejaVuSansMono-58" transform="translate(1204.1)"/><use xlink:href="#DejaVuSansMono-50" transform="translate(1264.3)"/><use xlink:href="#DejaVuSansMono-53" transform="translate(1324.51)"/><use xlink:href="#DejaVuSansMono-4e" transform="translate(1384.72)"/><use xlink:href="#DejaVuSansMono-52" transform="translate(1444.92)"/><use xlink:href="#DejaVuSansMono-20" transform="translate(1505.13)"/><use xlink:href="#DejaVuSansMono-76" transform="translate(1565.33)"/><use xlink:href="#DejaVuSansMono-73" transform="translate(1625.54)"/><use xlink:href="#DejaVuSansMono-20" transform="translate(1685.74)"/><use xlink:href="#DejaVuSansMono-46" transform="translate(1745.95)"/><use xlink:href="#DejaVuSansMono-69" transform="translate(1806.15)"/><use xlink:href="#DejaVuSansMono-6c" transform="translate(1866.36)"/><use xlink:href="#DejaVuSansMono-65" transform="translate(1926.56)"/><use xlink:href="#DejaVuSansMono-73" transform="translate(1986.77)"/><use xlink:href="#DejaVuSansMono-69" transform="translate(2046.97)"/><use xlink:href="#DejaVuSansMono-7a" transform="translate(2107.18)"/><use xlink:href="#DejaVuSansMono-65" transform="translate(2167.38)"/></g><g id="legend_1"><path id="patch_7" d="M61.24 85.03h143.53q2 0 2-2V39.16q0-2-2-2H61.24q-2 0-2 2v43.87q0 2 2 2z" style="opacity:.8;stroke:#ccc;stroke-linejoin:miter"/><g id="line2d_36"><path d="M63.24 45.26h20" style="fill:none;stroke-dasharray:9.6,2.4,1.5,2.4;stroke-dashoffset:0;stroke:#fcbba1;stroke-width:1.5"/><use xlink:href="#ma547243aca" x="73.25" y="45.26" style="fill:#fcbba1;stroke:#fcbba1"/></g><g id="text_36" style="fill:#fff" transform="matrix(.1 0 0 -.1 91.25 48.76)"><defs><path id="DejaVuSans-73" d="M2834 3397v-544q-243 125-506 187-262 63-544 63-428 0-642-131t-214-394q0-200 153-314t616-217l197-44q612-131 870-370t258-667q0-488-386-773Q2250-91 1575-91q-281 0-586 55T347 128v594q319-166 628-249 309-82 613-82 406 0 624 139 219 139 219 392 0 234-158 359-157 125-692 241l-200 47q-534 112-772 345-237 233-237 639 0 494 350 762 350 269 994 269 318 0 599-47 282-46 519-140z" transform="scale(.01563)"/><path id="DejaVuSans-76" d="M191 3500h609L1894 563l1094 2937h609L2284 0h-781L191 3500z" transform="scale(.01563)"/><path id="DejaVuSans-74" d="M1172 4494v-994h1184v-447H1172V1153q0-428 117-550t477-122h590V0h-590q-666 0-919 248-253 249-253 905v1900H172v447h422v994h578z" transform="scale(.01563)"/><path id="DejaVuSans-61" d="M2194 1759q-697 0-966-159t-269-544q0-306 202-486 202-179 548-179 479 0 768 339t289 901v128h-572zm1147 238V0h-575v531q-197-318-491-470T1556-91q-537 0-855 302-317 302-317 808 0 590 395 890 396 300 1180 300h807v57q0 397-261 614t-733 217q-300 0-585-72-284-72-546-216v532q315 122 612 182 297 61 578 61 760 0 1135-394 375-393 375-1193z" transform="scale(.01563)"/><path id="DejaVuSans-5f" d="M3263-1063v-446H-63v446h3326z" transform="scale(.01563)"/><path id="DejaVuSans-2d" d="M313 2009h1684v-512H313v512z" transform="scale(.01563)"/><path id="DejaVuSans-42" d="M1259 2228V519h1013q509 0 754 211 246 211 246 645 0 438-246 645-245 208-754 208H1259zm0 1919V2741h935q462 0 688 173 227 174 227 530 0 353-227 528-226 175-688 175h-935zm-631 519h1613q722 0 1112-300 391-300 391-853 0-429-200-682t-588-315q466-100 724-418 258-317 258-792 0-625-425-966Q3088 0 2303 0H628v4666z" transform="scale(.01563)"/><path id="DejaVuSans-70" d="M1159 525v-1856H581v4831h578v-531q182 312 458 463 277 152 661 152 638 0 1036-506 399-506 399-1331T3314 415Q2916-91 2278-91q-384 0-661 152-276 152-458 464zm1957 1222q0 634-261 995t-717 361q-457 0-718-361t-261-995q0-634 261-995t718-361q456 0 717 361t261 995z" transform="scale(.01563)"/><path id="DejaVuSans-63" d="M3122 3366v-538q-244 135-489 202t-495 67q-560 0-870-355-309-354-309-995t309-996q310-354 870-354 250 0 495 67t489 202V134Q2881 22 2623-34q-257-57-548-57-791 0-1257 497-465 497-465 1341 0 856 470 1346 471 491 1290 491 265 0 518-55 253-54 491-163z" transform="scale(.01563)"/></defs><use xlink:href="#DejaVuSans-73"/><use xlink:href="#DejaVuSans-76" transform="translate(52.1)"/><use xlink:href="#DejaVuSans-74" transform="translate(111.28)"/><use xlink:href="#DejaVuSans-61" transform="translate(150.49)"/><use xlink:href="#DejaVuSans-76" transform="translate(211.77)"/><use xlink:href="#DejaVuSans-31" transform="translate(270.95)"/><use xlink:href="#DejaVuSans-5f" transform="translate(334.57)"/><use xlink:href="#DejaVuSans-32" transform="translate(384.57)"/><use xlink:href="#DejaVuSans-2e" transform="translate(448.2)"/><use xlink:href="#DejaVuSans-33" transform="translate(479.98)"/><use xlink:href="#DejaVuSans-2e" transform="translate(543.6)"/><use xlink:href="#DejaVuSans-30" transform="translate(575.4)"/><use xlink:href="#DejaVuSans-2d" transform="translate(639.01)"/><use xlink:href="#DejaVuSans-42" transform="translate(671.47)"/><use xlink:href="#DejaVuSans-5f" transform="translate(740.08)"/><use xlink:href="#DejaVuSans-70" transform="translate(790.08)"/><use xlink:href="#DejaVuSans-32" transform="translate(853.55)"/><use xlink:href="#DejaVuSans-2e" transform="translate(917.18)"/><use xlink:href="#DejaVuSans-63" transform="translate(948.96)"/><use xlink:href="#DejaVuSans-73" transform="translate(1003.94)"/><use xlink:href="#DejaVuSans-76" transform="translate(1056.04)"/></g><g id="line2d_37"><path d="M63.24 60.21h20" style="fill:none;stroke-dasharray:9.6,2.4,1.5,2.4;stroke-dashoffset:0;stroke:#fb694a;stroke-width:1.5"/><use xlink:href="#m6045bdc98b" x="73.25" y="60.21" style="fill:#fb694a;stroke:#fb694a"/></g><g id="text_37" style="fill:#fff" transform="matrix(.1 0 0 -.1 91.25 63.71)"><use xlink:href="#DejaVuSans-73"/><use xlink:href="#DejaVuSans-76" transform="translate(52.1)"/><use xlink:href="#DejaVuSans-74" transform="translate(111.28)"/><use xlink:href="#DejaVuSans-61" transform="translate(150.49)"/><use xlink:href="#DejaVuSans-76" transform="translate(211.77)"/><use xlink:href="#DejaVuSans-31" transform="translate(270.95)"/><use xlink:href="#DejaVuSans-5f" transform="translate(334.57)"/><use xlink:href="#DejaVuSans-32" transform="translate(384.57)"/><use xlink:href="#DejaVuSans-2e" transform="translate(448.2)"/><use xlink:href="#DejaVuSans-33" transform="translate(479.98)"/><use xlink:href="#DejaVuSans-2e" transform="translate(543.6)"/><use xlink:href="#DejaVuSans-30" transform="translate(575.4)"/><use xlink:href="#DejaVuSans-2d" transform="translate(639.01)"/><use xlink:href="#DejaVuSans-42" transform="translate(671.47)"/><use xlink:href="#DejaVuSans-5f" transform="translate(740.08)"/><use xlink:href="#DejaVuSans-70" transform="translate(790.08)"/><use xlink:href="#DejaVuSans-34" transform="translate(853.55)"/><use xlink:href="#DejaVuSans-2e" transform="translate(917.18)"/><use xlink:href="#DejaVuSans-63" transform="translate(948.96)"/><use xlink:href="#DejaVuSans-73" transform="translate(1003.94)"/><use xlink:href="#DejaVuSans-76" transform="translate(1056.04)"/></g><g id="line2d_38"><path d="M63.24 75.17h20" style="fill:none;stroke-dasharray:9.6,2.4,1.5,2.4;stroke-dashoffset:0;stroke:#ca181d;stroke-width:1.5"/><use xlink:href="#ma722630ca9" x="73.25" y="75.17" style="fill:#ca181d;stroke:#ca181d"/></g><g id="text_38" style="fill:#fff" transform="matrix(.1 0 0 -.1 91.25 78.67)"><use xlink:href="#DejaVuSans-73"/><use xlink:href="#DejaVuSans-76" transform="translate(52.1)"/><use xlink:href="#DejaVuSans-74" transform="translate(111.28)"/><use xlink:href="#DejaVuSans-61" transform="translate(150.49)"/><use xlink:href="#DejaVuSans-76" transform="translate(211.77)"/><use xlink:href="#DejaVuSans-31" transform="translate(270.95)"/><use xlink:href="#DejaVuSans-5f" transform="translate(334.57)"/><use xlink:href="#DejaVuSans-32" transform="translate(384.57)"/><use xlink:href="#DejaVuSans-2e" transform="translate(448.2)"/><use xlink:href="#DejaVuSans-33" transform="translate(479.98)"/><use xlink:href="#DejaVuSans-2e" transform="translate(543.6)"/><use xlink:href="#DejaVuSans-30" transform="translate(575.4)"/><use xlink:href="#DejaVuSans-2d" transform="translate(639.01)"/><use xlink:href="#DejaVuSans-42" transform="translate(671.47)"/><use xlink:href="#DejaVuSans-5f" transform="translate(740.08)"/><use xlink:href="#DejaVuSans-70" transform="translate(790.08)"/><use xlink:href="#DejaVuSans-36" transform="translate(853.55)"/><use xlink:href="#DejaVuSans-2e" transform="translate(917.18)"/><use xlink:href="#DejaVuSans-63" transform="translate(948.96)"/><use xlink:href="#DejaVuSans-73" transform="translate(1003.94)"/><use xlink:href="#DejaVuSans-76" transform="translate(1056.04)"/></g></g></g></g><defs><clipPath id="p73b808ac1b"><path d="M54.24 32.16H709.2v357.88H54.24z"/></clipPath></defs></svg>