<?xml version="1.0" encoding="utf-8" standalone="no"?>
<!DOCTYPE svg PUBLIC "-//W3C//DTD SVG 1.1//EN"
  "http://www.w3.org/Graphics/SVG/1.1/DTD/svg11.dtd">
<svg xmlns:xlink="http://www.w3.org/1999/xlink" width="720pt" height="432pt" viewBox="0 0 720 432" xmlns="http://www.w3.org/2000/svg" version="1.1">
 <metadata>
  <rdf:RDF xmlns:dc="http://purl.org/dc/elements/1.1/" xmlns:cc="http://creativecommons.org/ns#" xmlns:rdf="http://www.w3.org/1999/02/22-rdf-syntax-ns#">
   <cc:Work>
    <dc:type rdf:resource="http://purl.org/dc/dcmitype/StillImage"/>
    <dc:date>2025-02-07T22:19:32.231372</dc:date>
    <dc:format>image/svg+xml</dc:format>
    <dc:creator>
     <cc:Agent>
      <dc:title>Matplotlib v3.10.0, https://matplotlib.org/</dc:title>
     </cc:Agent>
    </dc:creator>
   </cc:Work>
  </rdf:RDF>
 </metadata>
 <defs>
  <style type="text/css">*{stroke-linejoin: round; stroke-linecap: butt}</style>
 </defs>
 <g id="figure_1">
  <g id="patch_1">
   <path d="M 0 432 
L 720 432 
L 720 0 
L 0 0 
z
"/>
  </g>
  <g id="axes_1">
   <g id="patch_2">
    <path d="M 44.57 390.04 
L 709.2 390.04 
L 709.2 32.88 
L 44.57 32.88 
z
"/>
   </g>
   <g id="matplotlib.axis_1">
    <g id="xtick_1">
     <g id="line2d_1">
      <path d="M 61.65883 390.04 
L 61.65883 32.88 
" clip-path="url(#p3cb7674048)" style="fill: none; stroke-dasharray: 1.85,0.8; stroke-dashoffset: 0; stroke: #808080; stroke-opacity: 0.5; stroke-width: 0.5"/>
     </g>
     <g id="line2d_2">
      <defs>
       <path id="m34876a2c78" d="M 0 0 
L 0 3.5 
" style="stroke: #808080; stroke-width: 0.8"/>
      </defs>
      <g>
       <use xlink:href="#m34876a2c78" x="61.65883" y="390.04" style="fill: #808080; stroke: #808080; stroke-width: 0.8"/>
      </g>
     </g>
     <g id="text_1">
      <!-- 0.50 -->
      <g style="fill: #808080" transform="translate(50.526017 404.638438) scale(0.1 -0.1)">
       <defs>
        <path id="DejaVuSans-30" d="M 2034 4250 
Q 1547 4250 1301 3770 
Q 1056 3291 1056 2328 
Q 1056 1369 1301 889 
Q 1547 409 2034 409 
Q 2525 409 2770 889 
Q 3016 1369 3016 2328 
Q 3016 3291 2770 3770 
Q 2525 4250 2034 4250 
z
M 2034 4750 
Q 2819 4750 3233 4129 
Q 3647 3509 3647 2328 
Q 3647 1150 3233 529 
Q 2819 -91 2034 -91 
Q 1250 -91 836 529 
Q 422 1150 422 2328 
Q 422 3509 836 4129 
Q 1250 4750 2034 4750 
z
" transform="scale(0.015625)"/>
        <path id="DejaVuSans-2e" d="M 684 794 
L 1344 794 
L 1344 0 
L 684 0 
L 684 794 
z
" transform="scale(0.015625)"/>
        <path id="DejaVuSans-35" d="M 691 4666 
L 3169 4666 
L 3169 4134 
L 1269 4134 
L 1269 2991 
Q 1406 3038 1543 3061 
Q 1681 3084 1819 3084 
Q 2600 3084 3056 2656 
Q 3513 2228 3513 1497 
Q 3513 744 3044 326 
Q 2575 -91 1722 -91 
Q 1428 -91 1123 -41 
Q 819 9 494 109 
L 494 744 
Q 775 591 1075 516 
Q 1375 441 1709 441 
Q 2250 441 2565 725 
Q 2881 1009 2881 1497 
Q 2881 1984 2565 2268 
Q 2250 2553 1709 2553 
Q 1456 2553 1204 2497 
Q 953 2441 691 2322 
L 691 4666 
z
" transform="scale(0.015625)"/>
       </defs>
       <use xlink:href="#DejaVuSans-30"/>
       <use xlink:href="#DejaVuSans-2e" transform="translate(63.623047 0)"/>
       <use xlink:href="#DejaVuSans-35" transform="translate(95.410156 0)"/>
       <use xlink:href="#DejaVuSans-30" transform="translate(159.033203 0)"/>
      </g>
     </g>
    </g>
    <g id="xtick_2">
     <g id="line2d_3">
      <path d="M 149.51893 390.04 
L 149.51893 32.88 
" clip-path="url(#p3cb7674048)" style="fill: none; stroke-dasharray: 1.85,0.8; stroke-dashoffset: 0; stroke: #808080; stroke-opacity: 0.5; stroke-width: 0.5"/>
     </g>
     <g id="line2d_4">
      <g>
       <use xlink:href="#m34876a2c78" x="149.51893" y="390.04" style="fill: #808080; stroke: #808080; stroke-width: 0.8"/>
      </g>
     </g>
     <g id="text_2">
      <!-- 0.75 -->
      <g style="fill: #808080" transform="translate(138.386117 404.638438) scale(0.1 -0.1)">
       <defs>
        <path id="DejaVuSans-37" d="M 525 4666 
L 3525 4666 
L 3525 4397 
L 1831 0 
L 1172 0 
L 2766 4134 
L 525 4134 
L 525 4666 
z
" transform="scale(0.015625)"/>
       </defs>
       <use xlink:href="#DejaVuSans-30"/>
       <use xlink:href="#DejaVuSans-2e" transform="translate(63.623047 0)"/>
       <use xlink:href="#DejaVuSans-37" transform="translate(95.410156 0)"/>
       <use xlink:href="#DejaVuSans-35" transform="translate(159.033203 0)"/>
      </g>
     </g>
    </g>
    <g id="xtick_3">
     <g id="line2d_5">
      <path d="M 237.379029 390.04 
L 237.379029 32.88 
" clip-path="url(#p3cb7674048)" style="fill: none; stroke-dasharray: 1.85,0.8; stroke-dashoffset: 0; stroke: #808080; stroke-opacity: 0.5; stroke-width: 0.5"/>
     </g>
     <g id="line2d_6">
      <g>
       <use xlink:href="#m34876a2c78" x="237.379029" y="390.04" style="fill: #808080; stroke: #808080; stroke-width: 0.8"/>
      </g>
     </g>
     <g id="text_3">
      <!-- 1.00 -->
      <g style="fill: #808080" transform="translate(226.246217 404.638438) scale(0.1 -0.1)">
       <defs>
        <path id="DejaVuSans-31" d="M 794 531 
L 1825 531 
L 1825 4091 
L 703 3866 
L 703 4441 
L 1819 4666 
L 2450 4666 
L 2450 531 
L 3481 531 
L 3481 0 
L 794 0 
L 794 531 
z
" transform="scale(0.015625)"/>
       </defs>
       <use xlink:href="#DejaVuSans-31"/>
       <use xlink:href="#DejaVuSans-2e" transform="translate(63.623047 0)"/>
       <use xlink:href="#DejaVuSans-30" transform="translate(95.410156 0)"/>
       <use xlink:href="#DejaVuSans-30" transform="translate(159.033203 0)"/>
      </g>
     </g>
    </g>
    <g id="xtick_4">
     <g id="line2d_7">
      <path d="M 325.239129 390.04 
L 325.239129 32.88 
" clip-path="url(#p3cb7674048)" style="fill: none; stroke-dasharray: 1.85,0.8; stroke-dashoffset: 0; stroke: #808080; stroke-opacity: 0.5; stroke-width: 0.5"/>
     </g>
     <g id="line2d_8">
      <g>
       <use xlink:href="#m34876a2c78" x="325.239129" y="390.04" style="fill: #808080; stroke: #808080; stroke-width: 0.8"/>
      </g>
     </g>
     <g id="text_4">
      <!-- 1.25 -->
      <g style="fill: #808080" transform="translate(314.106316 404.638438) scale(0.1 -0.1)">
       <defs>
        <path id="DejaVuSans-32" d="M 1228 531 
L 3431 531 
L 3431 0 
L 469 0 
L 469 531 
Q 828 903 1448 1529 
Q 2069 2156 2228 2338 
Q 2531 2678 2651 2914 
Q 2772 3150 2772 3378 
Q 2772 3750 2511 3984 
Q 2250 4219 1831 4219 
Q 1534 4219 1204 4116 
Q 875 4013 500 3803 
L 500 4441 
Q 881 4594 1212 4672 
Q 1544 4750 1819 4750 
Q 2544 4750 2975 4387 
Q 3406 4025 3406 3419 
Q 3406 3131 3298 2873 
Q 3191 2616 2906 2266 
Q 2828 2175 2409 1742 
Q 1991 1309 1228 531 
z
" transform="scale(0.015625)"/>
       </defs>
       <use xlink:href="#DejaVuSans-31"/>
       <use xlink:href="#DejaVuSans-2e" transform="translate(63.623047 0)"/>
       <use xlink:href="#DejaVuSans-32" transform="translate(95.410156 0)"/>
       <use xlink:href="#DejaVuSans-35" transform="translate(159.033203 0)"/>
      </g>
     </g>
    </g>
    <g id="xtick_5">
     <g id="line2d_9">
      <path d="M 413.099229 390.04 
L 413.099229 32.88 
" clip-path="url(#p3cb7674048)" style="fill: none; stroke-dasharray: 1.85,0.8; stroke-dashoffset: 0; stroke: #808080; stroke-opacity: 0.5; stroke-width: 0.5"/>
     </g>
     <g id="line2d_10">
      <g>
       <use xlink:href="#m34876a2c78" x="413.099229" y="390.04" style="fill: #808080; stroke: #808080; stroke-width: 0.8"/>
      </g>
     </g>
     <g id="text_5">
      <!-- 1.50 -->
      <g style="fill: #808080" transform="translate(401.966416 404.638438) scale(0.1 -0.1)">
       <use xlink:href="#DejaVuSans-31"/>
       <use xlink:href="#DejaVuSans-2e" transform="translate(63.623047 0)"/>
       <use xlink:href="#DejaVuSans-35" transform="translate(95.410156 0)"/>
       <use xlink:href="#DejaVuSans-30" transform="translate(159.033203 0)"/>
      </g>
     </g>
    </g>
    <g id="xtick_6">
     <g id="line2d_11">
      <path d="M 500.959328 390.04 
L 500.959328 32.88 
" clip-path="url(#p3cb7674048)" style="fill: none; stroke-dasharray: 1.85,0.8; stroke-dashoffset: 0; stroke: #808080; stroke-opacity: 0.5; stroke-width: 0.5"/>
     </g>
     <g id="line2d_12">
      <g>
       <use xlink:href="#m34876a2c78" x="500.959328" y="390.04" style="fill: #808080; stroke: #808080; stroke-width: 0.8"/>
      </g>
     </g>
     <g id="text_6">
      <!-- 1.75 -->
      <g style="fill: #808080" transform="translate(489.826516 404.638438) scale(0.1 -0.1)">
       <use xlink:href="#DejaVuSans-31"/>
       <use xlink:href="#DejaVuSans-2e" transform="translate(63.623047 0)"/>
       <use xlink:href="#DejaVuSans-37" transform="translate(95.410156 0)"/>
       <use xlink:href="#DejaVuSans-35" transform="translate(159.033203 0)"/>
      </g>
     </g>
    </g>
    <g id="xtick_7">
     <g id="line2d_13">
      <path d="M 588.819428 390.04 
L 588.819428 32.88 
" clip-path="url(#p3cb7674048)" style="fill: none; stroke-dasharray: 1.85,0.8; stroke-dashoffset: 0; stroke: #808080; stroke-opacity: 0.5; stroke-width: 0.5"/>
     </g>
     <g id="line2d_14">
      <g>
       <use xlink:href="#m34876a2c78" x="588.819428" y="390.04" style="fill: #808080; stroke: #808080; stroke-width: 0.8"/>
      </g>
     </g>
     <g id="text_7">
      <!-- 2.00 -->
      <g style="fill: #808080" transform="translate(577.686616 404.638438) scale(0.1 -0.1)">
       <use xlink:href="#DejaVuSans-32"/>
       <use xlink:href="#DejaVuSans-2e" transform="translate(63.623047 0)"/>
       <use xlink:href="#DejaVuSans-30" transform="translate(95.410156 0)"/>
       <use xlink:href="#DejaVuSans-30" transform="translate(159.033203 0)"/>
      </g>
     </g>
    </g>
    <g id="xtick_8">
     <g id="line2d_15">
      <path d="M 676.679528 390.04 
L 676.679528 32.88 
" clip-path="url(#p3cb7674048)" style="fill: none; stroke-dasharray: 1.85,0.8; stroke-dashoffset: 0; stroke: #808080; stroke-opacity: 0.5; stroke-width: 0.5"/>
     </g>
     <g id="line2d_16">
      <g>
       <use xlink:href="#m34876a2c78" x="676.679528" y="390.04" style="fill: #808080; stroke: #808080; stroke-width: 0.8"/>
      </g>
     </g>
     <g id="text_8">
      <!-- 2.25 -->
      <g style="fill: #808080" transform="translate(665.546715 404.638438) scale(0.1 -0.1)">
       <use xlink:href="#DejaVuSans-32"/>
       <use xlink:href="#DejaVuSans-2e" transform="translate(63.623047 0)"/>
       <use xlink:href="#DejaVuSans-32" transform="translate(95.410156 0)"/>
       <use xlink:href="#DejaVuSans-35" transform="translate(159.033203 0)"/>
      </g>
     </g>
    </g>
    <g id="text_9">
     <!-- Output Filesize (KB) -->
     <g style="fill: #dcdcdc" transform="translate(316.681875 418.369687) scale(0.1 -0.1)">
      <defs>
       <path id="DejaVuSansMono-4f" d="M 2828 2328 
Q 2828 3356 2617 3797 
Q 2406 4238 1925 4238 
Q 1447 4238 1236 3797 
Q 1025 3356 1025 2328 
Q 1025 1303 1236 862 
Q 1447 422 1925 422 
Q 2406 422 2617 861 
Q 2828 1300 2828 2328 
z
M 3488 2328 
Q 3488 1109 3102 509 
Q 2716 -91 1925 -91 
Q 1134 -91 750 506 
Q 366 1103 366 2328 
Q 366 3550 752 4150 
Q 1138 4750 1925 4750 
Q 2716 4750 3102 4150 
Q 3488 3550 3488 2328 
z
" transform="scale(0.015625)"/>
       <path id="DejaVuSansMono-75" d="M 609 1325 
L 609 3494 
L 1184 3494 
L 1184 1325 
Q 1184 853 1351 631 
Q 1519 409 1869 409 
Q 2275 409 2490 695 
Q 2706 981 2706 1516 
L 2706 3494 
L 3284 3494 
L 3284 0 
L 2706 0 
L 2706 525 
Q 2553 222 2289 65 
Q 2025 -91 1672 -91 
Q 1134 -91 871 261 
Q 609 613 609 1325 
z
" transform="scale(0.015625)"/>
       <path id="DejaVuSansMono-74" d="M 1919 4494 
L 1919 3500 
L 3225 3500 
L 3225 3053 
L 1919 3053 
L 1919 1153 
Q 1919 766 2066 612 
Q 2213 459 2578 459 
L 3225 459 
L 3225 0 
L 2522 0 
Q 1875 0 1609 259 
Q 1344 519 1344 1153 
L 1344 3053 
L 409 3053 
L 409 3500 
L 1344 3500 
L 1344 4494 
L 1919 4494 
z
" transform="scale(0.015625)"/>
       <path id="DejaVuSansMono-70" d="M 1172 441 
L 1172 -1331 
L 594 -1331 
L 594 3500 
L 1172 3500 
L 1172 3053 
Q 1316 3313 1555 3448 
Q 1794 3584 2106 3584 
Q 2741 3584 3102 3093 
Q 3463 2603 3463 1734 
Q 3463 881 3100 395 
Q 2738 -91 2106 -91 
Q 1788 -91 1548 45 
Q 1309 181 1172 441 
z
M 2859 1747 
Q 2859 2416 2648 2756 
Q 2438 3097 2022 3097 
Q 1603 3097 1387 2755 
Q 1172 2413 1172 1747 
Q 1172 1084 1387 740 
Q 1603 397 2022 397 
Q 2438 397 2648 737 
Q 2859 1078 2859 1747 
z
" transform="scale(0.015625)"/>
       <path id="DejaVuSansMono-20" transform="scale(0.015625)"/>
       <path id="DejaVuSansMono-46" d="M 728 4666 
L 3475 4666 
L 3475 4134 
L 1363 4134 
L 1363 2759 
L 3278 2759 
L 3278 2228 
L 1363 2228 
L 1363 0 
L 728 0 
L 728 4666 
z
" transform="scale(0.015625)"/>
       <path id="DejaVuSansMono-69" d="M 800 3500 
L 2272 3500 
L 2272 447 
L 3413 447 
L 3413 0 
L 556 0 
L 556 447 
L 1697 447 
L 1697 3053 
L 800 3053 
L 800 3500 
z
M 1697 4863 
L 2272 4863 
L 2272 4134 
L 1697 4134 
L 1697 4863 
z
" transform="scale(0.015625)"/>
       <path id="DejaVuSansMono-6c" d="M 1997 1269 
Q 1997 881 2139 684 
Q 2281 488 2559 488 
L 3231 488 
L 3231 0 
L 2503 0 
Q 1988 0 1705 331 
Q 1422 663 1422 1269 
L 1422 4447 
L 500 4447 
L 500 4897 
L 1997 4897 
L 1997 1269 
z
" transform="scale(0.015625)"/>
       <path id="DejaVuSansMono-65" d="M 3475 1894 
L 3475 1613 
L 984 1613 
L 984 1594 
Q 984 1022 1282 709 
Q 1581 397 2125 397 
Q 2400 397 2700 484 
Q 3000 572 3341 750 
L 3341 178 
Q 3013 44 2708 -23 
Q 2403 -91 2119 -91 
Q 1303 -91 843 398 
Q 384 888 384 1747 
Q 384 2584 834 3084 
Q 1284 3584 2034 3584 
Q 2703 3584 3089 3131 
Q 3475 2678 3475 1894 
z
M 2900 2063 
Q 2888 2569 2661 2833 
Q 2434 3097 2009 3097 
Q 1594 3097 1325 2822 
Q 1056 2547 1006 2059 
L 2900 2063 
z
" transform="scale(0.015625)"/>
       <path id="DejaVuSansMono-73" d="M 3041 3378 
L 3041 2816 
Q 2794 2959 2544 3031 
Q 2294 3103 2034 3103 
Q 1644 3103 1451 2976 
Q 1259 2850 1259 2591 
Q 1259 2356 1403 2240 
Q 1547 2125 2119 2016 
L 2350 1972 
Q 2778 1891 2998 1647 
Q 3219 1403 3219 1013 
Q 3219 494 2850 201 
Q 2481 -91 1825 -91 
Q 1566 -91 1281 -36 
Q 997 19 666 128 
L 666 722 
Q 988 556 1281 473 
Q 1575 391 1838 391 
Q 2219 391 2428 545 
Q 2638 700 2638 978 
Q 2638 1378 1872 1531 
L 1847 1538 
L 1631 1581 
Q 1134 1678 906 1908 
Q 678 2138 678 2534 
Q 678 3038 1018 3311 
Q 1359 3584 1991 3584 
Q 2272 3584 2531 3532 
Q 2791 3481 3041 3378 
z
" transform="scale(0.015625)"/>
       <path id="DejaVuSansMono-7a" d="M 709 3506 
L 3250 3506 
L 3250 2981 
L 1241 469 
L 3250 469 
L 3250 0 
L 634 0 
L 634 531 
L 2644 3047 
L 709 3047 
L 709 3506 
z
" transform="scale(0.015625)"/>
       <path id="DejaVuSansMono-28" d="M 2766 4856 
Q 2350 4144 2145 3436 
Q 1941 2728 1941 2009 
Q 1941 1294 2145 584 
Q 2350 -125 2766 -844 
L 2266 -844 
Q 1794 -100 1562 604 
Q 1331 1309 1331 2009 
Q 1331 2706 1562 3412 
Q 1794 4119 2266 4856 
L 2766 4856 
z
" transform="scale(0.015625)"/>
       <path id="DejaVuSansMono-4b" d="M 428 4666 
L 1063 4666 
L 1063 2591 
L 3034 4666 
L 3775 4666 
L 1959 2759 
L 3828 0 
L 3066 0 
L 1544 2338 
L 1063 1825 
L 1063 0 
L 428 0 
L 428 4666 
z
" transform="scale(0.015625)"/>
       <path id="DejaVuSansMono-42" d="M 1153 2228 
L 1153 519 
L 1900 519 
Q 2450 519 2684 711 
Q 2919 903 2919 1344 
Q 2919 1800 2672 2014 
Q 2425 2228 1900 2228 
L 1153 2228 
z
M 1153 4147 
L 1153 2741 
L 1888 2741 
Q 2344 2741 2548 2916 
Q 2753 3091 2753 3481 
Q 2753 3834 2551 3990 
Q 2350 4147 1888 4147 
L 1153 4147 
z
M 519 4666 
L 1900 4666 
Q 2616 4666 3003 4356 
Q 3391 4047 3391 3481 
Q 3391 3053 3186 2806 
Q 2981 2559 2572 2497 
Q 3031 2428 3292 2104 
Q 3553 1781 3553 1281 
Q 3553 647 3137 323 
Q 2722 0 1900 0 
L 519 0 
L 519 4666 
z
" transform="scale(0.015625)"/>
       <path id="DejaVuSansMono-29" d="M 1088 4856 
L 1588 4856 
Q 2059 4119 2290 3412 
Q 2522 2706 2522 2009 
Q 2522 1306 2290 600 
Q 2059 -106 1588 -844 
L 1088 -844 
Q 1503 -119 1708 590 
Q 1913 1300 1913 2009 
Q 1913 2722 1708 3431 
Q 1503 4141 1088 4856 
z
" transform="scale(0.015625)"/>
      </defs>
      <use xlink:href="#DejaVuSansMono-4f"/>
      <use xlink:href="#DejaVuSansMono-75" transform="translate(60.205078 0)"/>
      <use xlink:href="#DejaVuSansMono-74" transform="translate(120.410156 0)"/>
      <use xlink:href="#DejaVuSansMono-70" transform="translate(180.615234 0)"/>
      <use xlink:href="#DejaVuSansMono-75" transform="translate(240.820312 0)"/>
      <use xlink:href="#DejaVuSansMono-74" transform="translate(301.025391 0)"/>
      <use xlink:href="#DejaVuSansMono-20" transform="translate(361.230469 0)"/>
      <use xlink:href="#DejaVuSansMono-46" transform="translate(421.435547 0)"/>
      <use xlink:href="#DejaVuSansMono-69" transform="translate(481.640625 0)"/>
      <use xlink:href="#DejaVuSansMono-6c" transform="translate(541.845703 0)"/>
      <use xlink:href="#DejaVuSansMono-65" transform="translate(602.050781 0)"/>
      <use xlink:href="#DejaVuSansMono-73" transform="translate(662.255859 0)"/>
      <use xlink:href="#DejaVuSansMono-69" transform="translate(722.460938 0)"/>
      <use xlink:href="#DejaVuSansMono-7a" transform="translate(782.666016 0)"/>
      <use xlink:href="#DejaVuSansMono-65" transform="translate(842.871094 0)"/>
      <use xlink:href="#DejaVuSansMono-20" transform="translate(903.076172 0)"/>
      <use xlink:href="#DejaVuSansMono-28" transform="translate(963.28125 0)"/>
      <use xlink:href="#DejaVuSansMono-4b" transform="translate(1023.486328 0)"/>
      <use xlink:href="#DejaVuSansMono-42" transform="translate(1083.691406 0)"/>
      <use xlink:href="#DejaVuSansMono-29" transform="translate(1143.896484 0)"/>
     </g>
    </g>
    <g id="text_10">
     <!-- 1e7 -->
     <g style="fill: #808080" transform="translate(690.321875 417.316562) scale(0.1 -0.1)">
      <defs>
       <path id="DejaVuSans-65" d="M 3597 1894 
L 3597 1613 
L 953 1613 
Q 991 1019 1311 708 
Q 1631 397 2203 397 
Q 2534 397 2845 478 
Q 3156 559 3463 722 
L 3463 178 
Q 3153 47 2828 -22 
Q 2503 -91 2169 -91 
Q 1331 -91 842 396 
Q 353 884 353 1716 
Q 353 2575 817 3079 
Q 1281 3584 2069 3584 
Q 2775 3584 3186 3129 
Q 3597 2675 3597 1894 
z
M 3022 2063 
Q 3016 2534 2758 2815 
Q 2500 3097 2075 3097 
Q 1594 3097 1305 2825 
Q 1016 2553 972 2059 
L 3022 2063 
z
" transform="scale(0.015625)"/>
      </defs>
      <use xlink:href="#DejaVuSans-31"/>
      <use xlink:href="#DejaVuSans-65" transform="translate(63.623047 0)"/>
      <use xlink:href="#DejaVuSans-37" transform="translate(125.146484 0)"/>
     </g>
    </g>
   </g>
   <g id="matplotlib.axis_2">
    <g id="ytick_1">
     <g id="line2d_17">
      <path d="M 44.57 374.687338 
L 709.2 374.687338 
" clip-path="url(#p3cb7674048)" style="fill: none; stroke-dasharray: 1.85,0.8; stroke-dashoffset: 0; stroke: #808080; stroke-opacity: 0.5; stroke-width: 0.5"/>
     </g>
     <g id="line2d_18">
      <defs>
       <path id="md87fedf7c1" d="M 0 0 
L -3.5 0 
" style="stroke: #808080; stroke-width: 0.8"/>
      </defs>
      <g>
       <use xlink:href="#md87fedf7c1" x="44.57" y="374.687338" style="fill: #808080; stroke: #808080; stroke-width: 0.8"/>
      </g>
     </g>
     <g id="text_11">
      <!-- 50 -->
      <g style="fill: #808080" transform="translate(24.845 378.486557) scale(0.1 -0.1)">
       <use xlink:href="#DejaVuSans-35"/>
       <use xlink:href="#DejaVuSans-30" transform="translate(63.623047 0)"/>
      </g>
     </g>
    </g>
    <g id="ytick_2">
     <g id="line2d_19">
      <path d="M 44.57 307.954615 
L 709.2 307.954615 
" clip-path="url(#p3cb7674048)" style="fill: none; stroke-dasharray: 1.85,0.8; stroke-dashoffset: 0; stroke: #808080; stroke-opacity: 0.5; stroke-width: 0.5"/>
     </g>
     <g id="line2d_20">
      <g>
       <use xlink:href="#md87fedf7c1" x="44.57" y="307.954615" style="fill: #808080; stroke: #808080; stroke-width: 0.8"/>
      </g>
     </g>
     <g id="text_12">
      <!-- 55 -->
      <g style="fill: #808080" transform="translate(24.845 311.753833) scale(0.1 -0.1)">
       <use xlink:href="#DejaVuSans-35"/>
       <use xlink:href="#DejaVuSans-35" transform="translate(63.623047 0)"/>
      </g>
     </g>
    </g>
    <g id="ytick_3">
     <g id="line2d_21">
      <path d="M 44.57 241.221891 
L 709.2 241.221891 
" clip-path="url(#p3cb7674048)" style="fill: none; stroke-dasharray: 1.85,0.8; stroke-dashoffset: 0; stroke: #808080; stroke-opacity: 0.5; stroke-width: 0.5"/>
     </g>
     <g id="line2d_22">
      <g>
       <use xlink:href="#md87fedf7c1" x="44.57" y="241.221891" style="fill: #808080; stroke: #808080; stroke-width: 0.8"/>
      </g>
     </g>
     <g id="text_13">
      <!-- 60 -->
      <g style="fill: #808080" transform="translate(24.845 245.02111) scale(0.1 -0.1)">
       <defs>
        <path id="DejaVuSans-36" d="M 2113 2584 
Q 1688 2584 1439 2293 
Q 1191 2003 1191 1497 
Q 1191 994 1439 701 
Q 1688 409 2113 409 
Q 2538 409 2786 701 
Q 3034 994 3034 1497 
Q 3034 2003 2786 2293 
Q 2538 2584 2113 2584 
z
M 3366 4563 
L 3366 3988 
Q 3128 4100 2886 4159 
Q 2644 4219 2406 4219 
Q 1781 4219 1451 3797 
Q 1122 3375 1075 2522 
Q 1259 2794 1537 2939 
Q 1816 3084 2150 3084 
Q 2853 3084 3261 2657 
Q 3669 2231 3669 1497 
Q 3669 778 3244 343 
Q 2819 -91 2113 -91 
Q 1303 -91 875 529 
Q 447 1150 447 2328 
Q 447 3434 972 4092 
Q 1497 4750 2381 4750 
Q 2619 4750 2861 4703 
Q 3103 4656 3366 4563 
z
" transform="scale(0.015625)"/>
       </defs>
       <use xlink:href="#DejaVuSans-36"/>
       <use xlink:href="#DejaVuSans-30" transform="translate(63.623047 0)"/>
      </g>
     </g>
    </g>
    <g id="ytick_4">
     <g id="line2d_23">
      <path d="M 44.57 174.489168 
L 709.2 174.489168 
" clip-path="url(#p3cb7674048)" style="fill: none; stroke-dasharray: 1.85,0.8; stroke-dashoffset: 0; stroke: #808080; stroke-opacity: 0.5; stroke-width: 0.5"/>
     </g>
     <g id="line2d_24">
      <g>
       <use xlink:href="#md87fedf7c1" x="44.57" y="174.489168" style="fill: #808080; stroke: #808080; stroke-width: 0.8"/>
      </g>
     </g>
     <g id="text_14">
      <!-- 65 -->
      <g style="fill: #808080" transform="translate(24.845 178.288387) scale(0.1 -0.1)">
       <use xlink:href="#DejaVuSans-36"/>
       <use xlink:href="#DejaVuSans-35" transform="translate(63.623047 0)"/>
      </g>
     </g>
    </g>
    <g id="ytick_5">
     <g id="line2d_25">
      <path d="M 44.57 107.756445 
L 709.2 107.756445 
" clip-path="url(#p3cb7674048)" style="fill: none; stroke-dasharray: 1.85,0.8; stroke-dashoffset: 0; stroke: #808080; stroke-opacity: 0.5; stroke-width: 0.5"/>
     </g>
     <g id="line2d_26">
      <g>
       <use xlink:href="#md87fedf7c1" x="44.57" y="107.756445" style="fill: #808080; stroke: #808080; stroke-width: 0.8"/>
      </g>
     </g>
     <g id="text_15">
      <!-- 70 -->
      <g style="fill: #808080" transform="translate(24.845 111.555664) scale(0.1 -0.1)">
       <use xlink:href="#DejaVuSans-37"/>
       <use xlink:href="#DejaVuSans-30" transform="translate(63.623047 0)"/>
      </g>
     </g>
    </g>
    <g id="ytick_6">
     <g id="line2d_27">
      <path d="M 44.57 41.023722 
L 709.2 41.023722 
" clip-path="url(#p3cb7674048)" style="fill: none; stroke-dasharray: 1.85,0.8; stroke-dashoffset: 0; stroke: #808080; stroke-opacity: 0.5; stroke-width: 0.5"/>
     </g>
     <g id="line2d_28">
      <g>
       <use xlink:href="#md87fedf7c1" x="44.57" y="41.023722" style="fill: #808080; stroke: #808080; stroke-width: 0.8"/>
      </g>
     </g>
     <g id="text_16">
      <!-- 75 -->
      <g style="fill: #808080" transform="translate(24.845 44.82294) scale(0.1 -0.1)">
       <use xlink:href="#DejaVuSans-37"/>
       <use xlink:href="#DejaVuSans-35" transform="translate(63.623047 0)"/>
      </g>
     </g>
    </g>
    <g id="text_17">
     <!-- SSIMULACRA2 Harmonic Mean -->
     <g style="fill: #dcdcdc" transform="translate(18.765313 286.713906) rotate(-90) scale(0.1 -0.1)">
      <defs>
       <path id="DejaVuSansMono-53" d="M 3163 4506 
L 3163 3866 
Q 2875 4050 2586 4144 
Q 2297 4238 2003 4238 
Q 1556 4238 1297 4030 
Q 1038 3822 1038 3469 
Q 1038 3159 1208 2996 
Q 1378 2834 1844 2725 
L 2175 2650 
Q 2831 2497 3131 2169 
Q 3431 1841 3431 1275 
Q 3431 609 3018 259 
Q 2606 -91 1819 -91 
Q 1491 -91 1159 -20 
Q 828 50 494 191 
L 494 863 
Q 853 634 1173 528 
Q 1494 422 1819 422 
Q 2297 422 2562 636 
Q 2828 850 2828 1234 
Q 2828 1584 2645 1768 
Q 2463 1953 2009 2053 
L 1672 2131 
Q 1022 2278 728 2575 
Q 434 2872 434 3372 
Q 434 3997 854 4373 
Q 1275 4750 1972 4750 
Q 2241 4750 2537 4689 
Q 2834 4628 3163 4506 
z
" transform="scale(0.015625)"/>
       <path id="DejaVuSansMono-49" d="M 628 4666 
L 3219 4666 
L 3219 4134 
L 2241 4134 
L 2241 531 
L 3219 531 
L 3219 0 
L 628 0 
L 628 531 
L 1606 531 
L 1606 4134 
L 628 4134 
L 628 4666 
z
" transform="scale(0.015625)"/>
       <path id="DejaVuSansMono-4d" d="M 269 4666 
L 1113 4666 
L 1919 2291 
L 2731 4666 
L 3578 4666 
L 3578 0 
L 2994 0 
L 2994 4122 
L 2163 1663 
L 1684 1663 
L 850 4122 
L 850 0 
L 269 0 
L 269 4666 
z
" transform="scale(0.015625)"/>
       <path id="DejaVuSansMono-55" d="M 459 1791 
L 459 4666 
L 1094 4666 
L 1094 1503 
Q 1094 1163 1112 1017 
Q 1131 872 1178 794 
Q 1278 609 1467 515 
Q 1656 422 1925 422 
Q 2197 422 2384 515 
Q 2572 609 2675 794 
Q 2722 872 2740 1015 
Q 2759 1159 2759 1497 
L 2759 4666 
L 3391 4666 
L 3391 1791 
Q 3391 1075 3302 773 
Q 3213 472 2994 275 
Q 2788 91 2522 0 
Q 2256 -91 1925 -91 
Q 1597 -91 1331 0 
Q 1066 91 856 275 
Q 641 469 550 776 
Q 459 1084 459 1791 
z
" transform="scale(0.015625)"/>
       <path id="DejaVuSansMono-4c" d="M 672 4666 
L 1306 4666 
L 1306 531 
L 3559 531 
L 3559 0 
L 672 0 
L 672 4666 
z
" transform="scale(0.015625)"/>
       <path id="DejaVuSansMono-41" d="M 1925 4109 
L 1259 1722 
L 2591 1722 
L 1925 4109 
z
M 1544 4666 
L 2309 4666 
L 3738 0 
L 3084 0 
L 2741 1216 
L 1106 1216 
L 769 0 
L 116 0 
L 1544 4666 
z
" transform="scale(0.015625)"/>
       <path id="DejaVuSansMono-43" d="M 3353 166 
Q 3113 38 2859 -26 
Q 2606 -91 2322 -91 
Q 1425 -91 929 543 
Q 434 1178 434 2328 
Q 434 3472 932 4111 
Q 1431 4750 2322 4750 
Q 2606 4750 2859 4686 
Q 3113 4622 3353 4494 
L 3353 3847 
Q 3122 4038 2856 4138 
Q 2591 4238 2322 4238 
Q 1706 4238 1400 3763 
Q 1094 3288 1094 2328 
Q 1094 1372 1400 897 
Q 1706 422 2322 422 
Q 2597 422 2861 522 
Q 3125 622 3353 813 
L 3353 166 
z
" transform="scale(0.015625)"/>
       <path id="DejaVuSansMono-52" d="M 2375 2203 
Q 2619 2141 2791 1967 
Q 2963 1794 3219 1275 
L 3853 0 
L 3175 0 
L 2619 1178 
Q 2378 1681 2186 1826 
Q 1994 1972 1684 1972 
L 1081 1972 
L 1081 0 
L 447 0 
L 447 4666 
L 1747 4666 
Q 2516 4666 2925 4319 
Q 3334 3972 3334 3316 
Q 3334 2853 3082 2561 
Q 2831 2269 2375 2203 
z
M 1081 4147 
L 1081 2491 
L 1772 2491 
Q 2225 2491 2447 2694 
Q 2669 2897 2669 3316 
Q 2669 3719 2433 3933 
Q 2197 4147 1747 4147 
L 1081 4147 
z
" transform="scale(0.015625)"/>
       <path id="DejaVuSansMono-32" d="M 1166 531 
L 3309 531 
L 3309 0 
L 475 0 
L 475 531 
Q 1059 1147 1496 1619 
Q 1934 2091 2100 2284 
Q 2413 2666 2522 2902 
Q 2631 3138 2631 3384 
Q 2631 3775 2401 3997 
Q 2172 4219 1772 4219 
Q 1488 4219 1175 4116 
Q 863 4013 513 3803 
L 513 4441 
Q 834 4594 1145 4672 
Q 1456 4750 1759 4750 
Q 2444 4750 2861 4386 
Q 3278 4022 3278 3431 
Q 3278 3131 3139 2831 
Q 3000 2531 2688 2169 
Q 2513 1966 2180 1606 
Q 1847 1247 1166 531 
z
" transform="scale(0.015625)"/>
       <path id="DejaVuSansMono-48" d="M 428 4666 
L 1063 4666 
L 1063 2753 
L 2791 2753 
L 2791 4666 
L 3425 4666 
L 3425 0 
L 2791 0 
L 2791 2222 
L 1063 2222 
L 1063 0 
L 428 0 
L 428 4666 
z
" transform="scale(0.015625)"/>
       <path id="DejaVuSansMono-61" d="M 2194 1759 
L 2003 1759 
Q 1500 1759 1245 1582 
Q 991 1406 991 1056 
Q 991 741 1181 566 
Q 1372 391 1709 391 
Q 2184 391 2456 720 
Q 2728 1050 2731 1631 
L 2731 1759 
L 2194 1759 
z
M 3309 1997 
L 3309 0 
L 2731 0 
L 2731 519 
Q 2547 206 2267 57 
Q 1988 -91 1588 -91 
Q 1053 -91 734 211 
Q 416 513 416 1019 
Q 416 1603 808 1906 
Q 1200 2209 1959 2209 
L 2731 2209 
L 2731 2300 
Q 2728 2719 2518 2908 
Q 2309 3097 1850 3097 
Q 1556 3097 1256 3012 
Q 956 2928 672 2766 
L 672 3341 
Q 991 3463 1283 3523 
Q 1575 3584 1850 3584 
Q 2284 3584 2592 3456 
Q 2900 3328 3091 3072 
Q 3209 2916 3259 2686 
Q 3309 2456 3309 1997 
z
" transform="scale(0.015625)"/>
       <path id="DejaVuSansMono-72" d="M 3609 2778 
Q 3425 2922 3234 2987 
Q 3044 3053 2816 3053 
Q 2278 3053 1993 2715 
Q 1709 2378 1709 1741 
L 1709 0 
L 1131 0 
L 1131 3500 
L 1709 3500 
L 1709 2816 
Q 1853 3188 2151 3386 
Q 2450 3584 2859 3584 
Q 3072 3584 3256 3531 
Q 3441 3478 3609 3366 
L 3609 2778 
z
" transform="scale(0.015625)"/>
       <path id="DejaVuSansMono-6d" d="M 2113 3144 
Q 2219 3369 2383 3476 
Q 2547 3584 2778 3584 
Q 3200 3584 3373 3257 
Q 3547 2931 3547 2028 
L 3547 0 
L 3022 0 
L 3022 2003 
Q 3022 2744 2939 2923 
Q 2856 3103 2638 3103 
Q 2388 3103 2295 2911 
Q 2203 2719 2203 2003 
L 2203 0 
L 1678 0 
L 1678 2003 
Q 1678 2753 1589 2928 
Q 1500 3103 1269 3103 
Q 1041 3103 952 2911 
Q 863 2719 863 2003 
L 863 0 
L 341 0 
L 341 3500 
L 863 3500 
L 863 3200 
Q 966 3388 1120 3486 
Q 1275 3584 1472 3584 
Q 1709 3584 1867 3475 
Q 2025 3366 2113 3144 
z
" transform="scale(0.015625)"/>
       <path id="DejaVuSansMono-6f" d="M 1925 3097 
Q 1488 3097 1263 2756 
Q 1038 2416 1038 1747 
Q 1038 1081 1263 739 
Q 1488 397 1925 397 
Q 2366 397 2591 739 
Q 2816 1081 2816 1747 
Q 2816 2416 2591 2756 
Q 2366 3097 1925 3097 
z
M 1925 3584 
Q 2653 3584 3039 3112 
Q 3425 2641 3425 1747 
Q 3425 850 3040 379 
Q 2656 -91 1925 -91 
Q 1197 -91 812 379 
Q 428 850 428 1747 
Q 428 2641 812 3112 
Q 1197 3584 1925 3584 
z
" transform="scale(0.015625)"/>
       <path id="DejaVuSansMono-6e" d="M 3284 2169 
L 3284 0 
L 2706 0 
L 2706 2169 
Q 2706 2641 2540 2862 
Q 2375 3084 2022 3084 
Q 1619 3084 1401 2798 
Q 1184 2513 1184 1978 
L 1184 0 
L 609 0 
L 609 3500 
L 1184 3500 
L 1184 2975 
Q 1338 3275 1600 3429 
Q 1863 3584 2222 3584 
Q 2756 3584 3020 3232 
Q 3284 2881 3284 2169 
z
" transform="scale(0.015625)"/>
       <path id="DejaVuSansMono-63" d="M 3316 178 
Q 3084 44 2839 -23 
Q 2594 -91 2338 -91 
Q 1525 -91 1067 396 
Q 609 884 609 1747 
Q 609 2609 1067 3096 
Q 1525 3584 2338 3584 
Q 2591 3584 2831 3518 
Q 3072 3453 3316 3316 
L 3316 2713 
Q 3088 2916 2858 3006 
Q 2628 3097 2338 3097 
Q 1797 3097 1506 2747 
Q 1216 2397 1216 1747 
Q 1216 1100 1508 748 
Q 1800 397 2338 397 
Q 2638 397 2875 489 
Q 3113 581 3316 775 
L 3316 178 
z
" transform="scale(0.015625)"/>
      </defs>
      <use xlink:href="#DejaVuSansMono-53"/>
      <use xlink:href="#DejaVuSansMono-53" transform="translate(60.205078 0)"/>
      <use xlink:href="#DejaVuSansMono-49" transform="translate(120.410156 0)"/>
      <use xlink:href="#DejaVuSansMono-4d" transform="translate(180.615234 0)"/>
      <use xlink:href="#DejaVuSansMono-55" transform="translate(240.820312 0)"/>
      <use xlink:href="#DejaVuSansMono-4c" transform="translate(301.025391 0)"/>
      <use xlink:href="#DejaVuSansMono-41" transform="translate(361.230469 0)"/>
      <use xlink:href="#DejaVuSansMono-43" transform="translate(421.435547 0)"/>
      <use xlink:href="#DejaVuSansMono-52" transform="translate(481.640625 0)"/>
      <use xlink:href="#DejaVuSansMono-41" transform="translate(541.845703 0)"/>
      <use xlink:href="#DejaVuSansMono-32" transform="translate(602.050781 0)"/>
      <use xlink:href="#DejaVuSansMono-20" transform="translate(662.255859 0)"/>
      <use xlink:href="#DejaVuSansMono-48" transform="translate(722.460938 0)"/>
      <use xlink:href="#DejaVuSansMono-61" transform="translate(782.666016 0)"/>
      <use xlink:href="#DejaVuSansMono-72" transform="translate(842.871094 0)"/>
      <use xlink:href="#DejaVuSansMono-6d" transform="translate(903.076172 0)"/>
      <use xlink:href="#DejaVuSansMono-6f" transform="translate(963.28125 0)"/>
      <use xlink:href="#DejaVuSansMono-6e" transform="translate(1023.486328 0)"/>
      <use xlink:href="#DejaVuSansMono-69" transform="translate(1083.691406 0)"/>
      <use xlink:href="#DejaVuSansMono-63" transform="translate(1143.896484 0)"/>
      <use xlink:href="#DejaVuSansMono-20" transform="translate(1204.101562 0)"/>
      <use xlink:href="#DejaVuSansMono-4d" transform="translate(1264.306641 0)"/>
      <use xlink:href="#DejaVuSansMono-65" transform="translate(1324.511719 0)"/>
      <use xlink:href="#DejaVuSansMono-61" transform="translate(1384.716797 0)"/>
      <use xlink:href="#DejaVuSansMono-6e" transform="translate(1444.921875 0)"/>
     </g>
    </g>
   </g>
   <g id="line2d_29">
    <path d="M 619.900711 65.207407 
L 392.724296 138.845633 
L 253.797938 203.565205 
L 147.533467 284.241379 
L 74.780455 373.805455 
" clip-path="url(#p3cb7674048)" style="fill: none; stroke-dasharray: 9.6,2.4,1.5,2.4; stroke-dashoffset: 0; stroke: #c6dbef; stroke-width: 1.5"/>
    <defs>
     <path id="m3ec8ec98b6" d="M 0 3 
C 0.795609 3 1.55874 2.683901 2.12132 2.12132 
C 2.683901 1.55874 3 0.795609 3 0 
C 3 -0.795609 2.683901 -1.55874 2.12132 -2.12132 
C 1.55874 -2.683901 0.795609 -3 0 -3 
C -0.795609 -3 -1.55874 -2.683901 -2.12132 -2.12132 
C -2.683901 -1.55874 -3 -0.795609 -3 0 
C -3 0.795609 -2.683901 1.55874 -2.12132 2.12132 
C -1.55874 2.683901 -0.795609 3 0 3 
z
" style="stroke: #c6dbef"/>
    </defs>
    <g clip-path="url(#p3cb7674048)">
     <use xlink:href="#m3ec8ec98b6" x="619.900711" y="65.207407" style="fill: #c6dbef; stroke: #c6dbef"/>
     <use xlink:href="#m3ec8ec98b6" x="392.724296" y="138.845633" style="fill: #c6dbef; stroke: #c6dbef"/>
     <use xlink:href="#m3ec8ec98b6" x="253.797938" y="203.565205" style="fill: #c6dbef; stroke: #c6dbef"/>
     <use xlink:href="#m3ec8ec98b6" x="147.533467" y="284.241379" style="fill: #c6dbef; stroke: #c6dbef"/>
     <use xlink:href="#m3ec8ec98b6" x="74.780455" y="373.805455" style="fill: #c6dbef; stroke: #c6dbef"/>
    </g>
   </g>
   <g id="line2d_30">
    <path d="M 624.114341 49.114545 
L 405.628379 110.249934 
L 263.641292 174.398404 
L 149.206675 258.022896 
L 75.084204 344.827237 
" clip-path="url(#p3cb7674048)" style="fill: none; stroke-dasharray: 9.6,2.4,1.5,2.4; stroke-dashoffset: 0; stroke: #6aaed6; stroke-width: 1.5"/>
    <defs>
     <path id="m0146d702d1" d="M 0 3 
C 0.795609 3 1.55874 2.683901 2.12132 2.12132 
C 2.683901 1.55874 3 0.795609 3 0 
C 3 -0.795609 2.683901 -1.55874 2.12132 -2.12132 
C 1.55874 -2.683901 0.795609 -3 0 -3 
C -0.795609 -3 -1.55874 -2.683901 -2.12132 -2.12132 
C -2.683901 -1.55874 -3 -0.795609 -3 0 
C -3 0.795609 -2.683901 1.55874 -2.12132 2.12132 
C -1.55874 2.683901 -0.795609 3 0 3 
z
" style="stroke: #6aaed6"/>
    </defs>
    <g clip-path="url(#p3cb7674048)">
     <use xlink:href="#m0146d702d1" x="624.114341" y="49.114545" style="fill: #6aaed6; stroke: #6aaed6"/>
     <use xlink:href="#m0146d702d1" x="405.628379" y="110.249934" style="fill: #6aaed6; stroke: #6aaed6"/>
     <use xlink:href="#m0146d702d1" x="263.641292" y="174.398404" style="fill: #6aaed6; stroke: #6aaed6"/>
     <use xlink:href="#m0146d702d1" x="149.206675" y="258.022896" style="fill: #6aaed6; stroke: #6aaed6"/>
     <use xlink:href="#m0146d702d1" x="75.084204" y="344.827237" style="fill: #6aaed6; stroke: #6aaed6"/>
    </g>
   </g>
   <g id="line2d_31">
    <path d="M 678.989545 68.572172 
L 461.60324 132.17264 
L 302.583032 195.594662 
L 174.010776 277.94176 
L 88.66344 371.981665 
" clip-path="url(#p3cb7674048)" style="fill: none; stroke-dasharray: 9.6,2.4,1.5,2.4; stroke-dashoffset: 0; stroke: #2070b4; stroke-width: 1.5"/>
    <defs>
     <path id="md23533520c" d="M 0 3 
C 0.795609 3 1.55874 2.683901 2.12132 2.12132 
C 2.683901 1.55874 3 0.795609 3 0 
C 3 -0.795609 2.683901 -1.55874 2.12132 -2.12132 
C 1.55874 -2.683901 0.795609 -3 0 -3 
C -0.795609 -3 -1.55874 -2.683901 -2.12132 -2.12132 
C -2.683901 -1.55874 -3 -0.795609 -3 0 
C -3 0.795609 -2.683901 1.55874 -2.12132 2.12132 
C -1.55874 2.683901 -0.795609 3 0 3 
z
" style="stroke: #2070b4"/>
    </defs>
    <g clip-path="url(#p3cb7674048)">
     <use xlink:href="#md23533520c" x="678.989545" y="68.572172" style="fill: #2070b4; stroke: #2070b4"/>
     <use xlink:href="#md23533520c" x="461.60324" y="132.17264" style="fill: #2070b4; stroke: #2070b4"/>
     <use xlink:href="#md23533520c" x="302.583032" y="195.594662" style="fill: #2070b4; stroke: #2070b4"/>
     <use xlink:href="#md23533520c" x="174.010776" y="277.94176" style="fill: #2070b4; stroke: #2070b4"/>
     <use xlink:href="#md23533520c" x="88.66344" y="371.981665" style="fill: #2070b4; stroke: #2070b4"/>
    </g>
   </g>
   <g id="patch_3">
    <path d="M 44.57 390.04 
L 44.57 32.88 
" style="fill: none; stroke: #808080; stroke-width: 0.8; stroke-linejoin: miter; stroke-linecap: square"/>
   </g>
   <g id="patch_4">
    <path d="M 709.2 390.04 
L 709.2 32.88 
" style="fill: none; stroke: #808080; stroke-width: 0.8; stroke-linejoin: miter; stroke-linecap: square"/>
   </g>
   <g id="patch_5">
    <path d="M 44.57 390.04 
L 709.2 390.04 
" style="fill: none; stroke: #808080; stroke-width: 0.8; stroke-linejoin: miter; stroke-linecap: square"/>
   </g>
   <g id="patch_6">
    <path d="M 44.57 32.88 
L 709.2 32.88 
" style="fill: none; stroke: #808080; stroke-width: 0.8; stroke-linejoin: miter; stroke-linecap: square"/>
   </g>
   <g id="text_18">
    <!-- Q20.0 -->
    <g style="fill: #ffffff" transform="translate(607.845711 55.207407) scale(0.08 -0.08)">
     <defs>
      <path id="DejaVuSans-51" d="M 2522 4238 
Q 1834 4238 1429 3725 
Q 1025 3213 1025 2328 
Q 1025 1447 1429 934 
Q 1834 422 2522 422 
Q 3209 422 3611 934 
Q 4013 1447 4013 2328 
Q 4013 3213 3611 3725 
Q 3209 4238 2522 4238 
z
M 3406 84 
L 4238 -825 
L 3475 -825 
L 2784 -78 
Q 2681 -84 2626 -87 
Q 2572 -91 2522 -91 
Q 1538 -91 948 567 
Q 359 1225 359 2328 
Q 359 3434 948 4092 
Q 1538 4750 2522 4750 
Q 3503 4750 4090 4092 
Q 4678 3434 4678 2328 
Q 4678 1516 4351 937 
Q 4025 359 3406 84 
z
" transform="scale(0.015625)"/>
     </defs>
     <use xlink:href="#DejaVuSans-51"/>
     <use xlink:href="#DejaVuSans-32" transform="translate(78.710938 0)"/>
     <use xlink:href="#DejaVuSans-30" transform="translate(142.333984 0)"/>
     <use xlink:href="#DejaVuSans-2e" transform="translate(205.957031 0)"/>
     <use xlink:href="#DejaVuSans-30" transform="translate(237.744141 0)"/>
    </g>
   </g>
   <g id="text_19">
    <!-- Q25.0 -->
    <g style="fill: #ffffff" transform="translate(380.669296 128.845633) scale(0.08 -0.08)">
     <use xlink:href="#DejaVuSans-51"/>
     <use xlink:href="#DejaVuSans-32" transform="translate(78.710938 0)"/>
     <use xlink:href="#DejaVuSans-35" transform="translate(142.333984 0)"/>
     <use xlink:href="#DejaVuSans-2e" transform="translate(205.957031 0)"/>
     <use xlink:href="#DejaVuSans-30" transform="translate(237.744141 0)"/>
    </g>
   </g>
   <g id="text_20">
    <!-- Q30.0 -->
    <g style="fill: #ffffff" transform="translate(241.742938 193.565205) scale(0.08 -0.08)">
     <defs>
      <path id="DejaVuSans-33" d="M 2597 2516 
Q 3050 2419 3304 2112 
Q 3559 1806 3559 1356 
Q 3559 666 3084 287 
Q 2609 -91 1734 -91 
Q 1441 -91 1130 -33 
Q 819 25 488 141 
L 488 750 
Q 750 597 1062 519 
Q 1375 441 1716 441 
Q 2309 441 2620 675 
Q 2931 909 2931 1356 
Q 2931 1769 2642 2001 
Q 2353 2234 1838 2234 
L 1294 2234 
L 1294 2753 
L 1863 2753 
Q 2328 2753 2575 2939 
Q 2822 3125 2822 3475 
Q 2822 3834 2567 4026 
Q 2313 4219 1838 4219 
Q 1578 4219 1281 4162 
Q 984 4106 628 3988 
L 628 4550 
Q 988 4650 1302 4700 
Q 1616 4750 1894 4750 
Q 2613 4750 3031 4423 
Q 3450 4097 3450 3541 
Q 3450 3153 3228 2886 
Q 3006 2619 2597 2516 
z
" transform="scale(0.015625)"/>
     </defs>
     <use xlink:href="#DejaVuSans-51"/>
     <use xlink:href="#DejaVuSans-33" transform="translate(78.710938 0)"/>
     <use xlink:href="#DejaVuSans-30" transform="translate(142.333984 0)"/>
     <use xlink:href="#DejaVuSans-2e" transform="translate(205.957031 0)"/>
     <use xlink:href="#DejaVuSans-30" transform="translate(237.744141 0)"/>
    </g>
   </g>
   <g id="text_21">
    <!-- Q35.0 -->
    <g style="fill: #ffffff" transform="translate(135.478467 274.241379) scale(0.08 -0.08)">
     <use xlink:href="#DejaVuSans-51"/>
     <use xlink:href="#DejaVuSans-33" transform="translate(78.710938 0)"/>
     <use xlink:href="#DejaVuSans-35" transform="translate(142.333984 0)"/>
     <use xlink:href="#DejaVuSans-2e" transform="translate(205.957031 0)"/>
     <use xlink:href="#DejaVuSans-30" transform="translate(237.744141 0)"/>
    </g>
   </g>
   <g id="text_22">
    <!-- Q40.0 -->
    <g style="fill: #ffffff" transform="translate(62.725455 363.805455) scale(0.08 -0.08)">
     <defs>
      <path id="DejaVuSans-34" d="M 2419 4116 
L 825 1625 
L 2419 1625 
L 2419 4116 
z
M 2253 4666 
L 3047 4666 
L 3047 1625 
L 3713 1625 
L 3713 1100 
L 3047 1100 
L 3047 0 
L 2419 0 
L 2419 1100 
L 313 1100 
L 313 1709 
L 2253 4666 
z
" transform="scale(0.015625)"/>
     </defs>
     <use xlink:href="#DejaVuSans-51"/>
     <use xlink:href="#DejaVuSans-34" transform="translate(78.710938 0)"/>
     <use xlink:href="#DejaVuSans-30" transform="translate(142.333984 0)"/>
     <use xlink:href="#DejaVuSans-2e" transform="translate(205.957031 0)"/>
     <use xlink:href="#DejaVuSans-30" transform="translate(237.744141 0)"/>
    </g>
   </g>
   <g id="text_23">
    <!-- Q20.0 -->
    <g style="fill: #ffffff" transform="translate(612.059341 34.114545) scale(0.08 -0.08)">
     <use xlink:href="#DejaVuSans-51"/>
     <use xlink:href="#DejaVuSans-32" transform="translate(78.710938 0)"/>
     <use xlink:href="#DejaVuSans-30" transform="translate(142.333984 0)"/>
     <use xlink:href="#DejaVuSans-2e" transform="translate(205.957031 0)"/>
     <use xlink:href="#DejaVuSans-30" transform="translate(237.744141 0)"/>
    </g>
   </g>
   <g id="text_24">
    <!-- Q25.0 -->
    <g style="fill: #ffffff" transform="translate(393.573379 95.249934) scale(0.08 -0.08)">
     <use xlink:href="#DejaVuSans-51"/>
     <use xlink:href="#DejaVuSans-32" transform="translate(78.710938 0)"/>
     <use xlink:href="#DejaVuSans-35" transform="translate(142.333984 0)"/>
     <use xlink:href="#DejaVuSans-2e" transform="translate(205.957031 0)"/>
     <use xlink:href="#DejaVuSans-30" transform="translate(237.744141 0)"/>
    </g>
   </g>
   <g id="text_25">
    <!-- Q30.0 -->
    <g style="fill: #ffffff" transform="translate(251.586292 159.398404) scale(0.08 -0.08)">
     <use xlink:href="#DejaVuSans-51"/>
     <use xlink:href="#DejaVuSans-33" transform="translate(78.710938 0)"/>
     <use xlink:href="#DejaVuSans-30" transform="translate(142.333984 0)"/>
     <use xlink:href="#DejaVuSans-2e" transform="translate(205.957031 0)"/>
     <use xlink:href="#DejaVuSans-30" transform="translate(237.744141 0)"/>
    </g>
   </g>
   <g id="text_26">
    <!-- Q35.0 -->
    <g style="fill: #ffffff" transform="translate(137.151675 243.022896) scale(0.08 -0.08)">
     <use xlink:href="#DejaVuSans-51"/>
     <use xlink:href="#DejaVuSans-33" transform="translate(78.710938 0)"/>
     <use xlink:href="#DejaVuSans-35" transform="translate(142.333984 0)"/>
     <use xlink:href="#DejaVuSans-2e" transform="translate(205.957031 0)"/>
     <use xlink:href="#DejaVuSans-30" transform="translate(237.744141 0)"/>
    </g>
   </g>
   <g id="text_27">
    <!-- Q40.0 -->
    <g style="fill: #ffffff" transform="translate(63.029204 329.827237) scale(0.08 -0.08)">
     <use xlink:href="#DejaVuSans-51"/>
     <use xlink:href="#DejaVuSans-34" transform="translate(78.710938 0)"/>
     <use xlink:href="#DejaVuSans-30" transform="translate(142.333984 0)"/>
     <use xlink:href="#DejaVuSans-2e" transform="translate(205.957031 0)"/>
     <use xlink:href="#DejaVuSans-30" transform="translate(237.744141 0)"/>
    </g>
   </g>
   <g id="text_28">
    <!-- Q20.0 -->
    <g style="fill: #ffffff" transform="translate(666.934545 48.572172) scale(0.08 -0.08)">
     <use xlink:href="#DejaVuSans-51"/>
     <use xlink:href="#DejaVuSans-32" transform="translate(78.710938 0)"/>
     <use xlink:href="#DejaVuSans-30" transform="translate(142.333984 0)"/>
     <use xlink:href="#DejaVuSans-2e" transform="translate(205.957031 0)"/>
     <use xlink:href="#DejaVuSans-30" transform="translate(237.744141 0)"/>
    </g>
   </g>
   <g id="text_29">
    <!-- Q25.0 -->
    <g style="fill: #ffffff" transform="translate(449.54824 112.17264) scale(0.08 -0.08)">
     <use xlink:href="#DejaVuSans-51"/>
     <use xlink:href="#DejaVuSans-32" transform="translate(78.710938 0)"/>
     <use xlink:href="#DejaVuSans-35" transform="translate(142.333984 0)"/>
     <use xlink:href="#DejaVuSans-2e" transform="translate(205.957031 0)"/>
     <use xlink:href="#DejaVuSans-30" transform="translate(237.744141 0)"/>
    </g>
   </g>
   <g id="text_30">
    <!-- Q30.0 -->
    <g style="fill: #ffffff" transform="translate(290.528032 175.594662) scale(0.08 -0.08)">
     <use xlink:href="#DejaVuSans-51"/>
     <use xlink:href="#DejaVuSans-33" transform="translate(78.710938 0)"/>
     <use xlink:href="#DejaVuSans-30" transform="translate(142.333984 0)"/>
     <use xlink:href="#DejaVuSans-2e" transform="translate(205.957031 0)"/>
     <use xlink:href="#DejaVuSans-30" transform="translate(237.744141 0)"/>
    </g>
   </g>
   <g id="text_31">
    <!-- Q35.0 -->
    <g style="fill: #ffffff" transform="translate(161.955776 257.94176) scale(0.08 -0.08)">
     <use xlink:href="#DejaVuSans-51"/>
     <use xlink:href="#DejaVuSans-33" transform="translate(78.710938 0)"/>
     <use xlink:href="#DejaVuSans-35" transform="translate(142.333984 0)"/>
     <use xlink:href="#DejaVuSans-2e" transform="translate(205.957031 0)"/>
     <use xlink:href="#DejaVuSans-30" transform="translate(237.744141 0)"/>
    </g>
   </g>
   <g id="text_32">
    <!-- Q40.0 -->
    <g style="fill: #ffffff" transform="translate(76.60844 351.981665) scale(0.08 -0.08)">
     <use xlink:href="#DejaVuSans-51"/>
     <use xlink:href="#DejaVuSans-34" transform="translate(78.710938 0)"/>
     <use xlink:href="#DejaVuSans-30" transform="translate(142.333984 0)"/>
     <use xlink:href="#DejaVuSans-2e" transform="translate(205.957031 0)"/>
     <use xlink:href="#DejaVuSans-30" transform="translate(237.744141 0)"/>
    </g>
   </g>
   <g id="text_33">
    <!-- Codec Comparison: SSIMULACRA2 Harmonic Mean vs Filesize -->
    <g style="fill: #ffffff" transform="translate(178.214687 20.88) scale(0.12 -0.12)">
     <defs>
      <path id="DejaVuSansMono-64" d="M 2681 3053 
L 2681 4863 
L 3256 4863 
L 3256 0 
L 2681 0 
L 2681 441 
Q 2538 181 2298 45 
Q 2059 -91 1747 -91 
Q 1113 -91 748 401 
Q 384 894 384 1759 
Q 384 2613 750 3098 
Q 1116 3584 1747 3584 
Q 2063 3584 2303 3448 
Q 2544 3313 2681 3053 
z
M 991 1747 
Q 991 1078 1203 737 
Q 1416 397 1831 397 
Q 2247 397 2464 740 
Q 2681 1084 2681 1747 
Q 2681 2413 2464 2755 
Q 2247 3097 1831 3097 
Q 1416 3097 1203 2756 
Q 991 2416 991 1747 
z
" transform="scale(0.015625)"/>
      <path id="DejaVuSansMono-3a" d="M 1528 3322 
L 2316 3322 
L 2316 2375 
L 1528 2375 
L 1528 3322 
z
M 1528 953 
L 2316 953 
L 2316 0 
L 1528 0 
L 1528 953 
z
" transform="scale(0.015625)"/>
      <path id="DejaVuSansMono-76" d="M 313 3500 
L 909 3500 
L 1925 563 
L 2944 3500 
L 3541 3500 
L 2297 0 
L 1556 0 
L 313 3500 
z
" transform="scale(0.015625)"/>
     </defs>
     <use xlink:href="#DejaVuSansMono-43"/>
     <use xlink:href="#DejaVuSansMono-6f" transform="translate(60.205078 0)"/>
     <use xlink:href="#DejaVuSansMono-64" transform="translate(120.410156 0)"/>
     <use xlink:href="#DejaVuSansMono-65" transform="translate(180.615234 0)"/>
     <use xlink:href="#DejaVuSansMono-63" transform="translate(240.820312 0)"/>
     <use xlink:href="#DejaVuSansMono-20" transform="translate(301.025391 0)"/>
     <use xlink:href="#DejaVuSansMono-43" transform="translate(361.230469 0)"/>
     <use xlink:href="#DejaVuSansMono-6f" transform="translate(421.435547 0)"/>
     <use xlink:href="#DejaVuSansMono-6d" transform="translate(481.640625 0)"/>
     <use xlink:href="#DejaVuSansMono-70" transform="translate(541.845703 0)"/>
     <use xlink:href="#DejaVuSansMono-61" transform="translate(602.050781 0)"/>
     <use xlink:href="#DejaVuSansMono-72" transform="translate(662.255859 0)"/>
     <use xlink:href="#DejaVuSansMono-69" transform="translate(722.460938 0)"/>
     <use xlink:href="#DejaVuSansMono-73" transform="translate(782.666016 0)"/>
     <use xlink:href="#DejaVuSansMono-6f" transform="translate(842.871094 0)"/>
     <use xlink:href="#DejaVuSansMono-6e" transform="translate(903.076172 0)"/>
     <use xlink:href="#DejaVuSansMono-3a" transform="translate(963.28125 0)"/>
     <use xlink:href="#DejaVuSansMono-20" transform="translate(1023.486328 0)"/>
     <use xlink:href="#DejaVuSansMono-53" transform="translate(1083.691406 0)"/>
     <use xlink:href="#DejaVuSansMono-53" transform="translate(1143.896484 0)"/>
     <use xlink:href="#DejaVuSansMono-49" transform="translate(1204.101562 0)"/>
     <use xlink:href="#DejaVuSansMono-4d" transform="translate(1264.306641 0)"/>
     <use xlink:href="#DejaVuSansMono-55" transform="translate(1324.511719 0)"/>
     <use xlink:href="#DejaVuSansMono-4c" transform="translate(1384.716797 0)"/>
     <use xlink:href="#DejaVuSansMono-41" transform="translate(1444.921875 0)"/>
     <use xlink:href="#DejaVuSansMono-43" transform="translate(1505.126953 0)"/>
     <use xlink:href="#DejaVuSansMono-52" transform="translate(1565.332031 0)"/>
     <use xlink:href="#DejaVuSansMono-41" transform="translate(1625.537109 0)"/>
     <use xlink:href="#DejaVuSansMono-32" transform="translate(1685.742188 0)"/>
     <use xlink:href="#DejaVuSansMono-20" transform="translate(1745.947266 0)"/>
     <use xlink:href="#DejaVuSansMono-48" transform="translate(1806.152344 0)"/>
     <use xlink:href="#DejaVuSansMono-61" transform="translate(1866.357422 0)"/>
     <use xlink:href="#DejaVuSansMono-72" transform="translate(1926.5625 0)"/>
     <use xlink:href="#DejaVuSansMono-6d" transform="translate(1986.767578 0)"/>
     <use xlink:href="#DejaVuSansMono-6f" transform="translate(2046.972656 0)"/>
     <use xlink:href="#DejaVuSansMono-6e" transform="translate(2107.177734 0)"/>
     <use xlink:href="#DejaVuSansMono-69" transform="translate(2167.382812 0)"/>
     <use xlink:href="#DejaVuSansMono-63" transform="translate(2227.587891 0)"/>
     <use xlink:href="#DejaVuSansMono-20" transform="translate(2287.792969 0)"/>
     <use xlink:href="#DejaVuSansMono-4d" transform="translate(2347.998047 0)"/>
     <use xlink:href="#DejaVuSansMono-65" transform="translate(2408.203125 0)"/>
     <use xlink:href="#DejaVuSansMono-61" transform="translate(2468.408203 0)"/>
     <use xlink:href="#DejaVuSansMono-6e" transform="translate(2528.613281 0)"/>
     <use xlink:href="#DejaVuSansMono-20" transform="translate(2588.818359 0)"/>
     <use xlink:href="#DejaVuSansMono-76" transform="translate(2649.023438 0)"/>
     <use xlink:href="#DejaVuSansMono-73" transform="translate(2709.228516 0)"/>
     <use xlink:href="#DejaVuSansMono-20" transform="translate(2769.433594 0)"/>
     <use xlink:href="#DejaVuSansMono-46" transform="translate(2829.638672 0)"/>
     <use xlink:href="#DejaVuSansMono-69" transform="translate(2889.84375 0)"/>
     <use xlink:href="#DejaVuSansMono-6c" transform="translate(2950.048828 0)"/>
     <use xlink:href="#DejaVuSansMono-65" transform="translate(3010.253906 0)"/>
     <use xlink:href="#DejaVuSansMono-73" transform="translate(3070.458984 0)"/>
     <use xlink:href="#DejaVuSansMono-69" transform="translate(3130.664062 0)"/>
     <use xlink:href="#DejaVuSansMono-7a" transform="translate(3190.869141 0)"/>
     <use xlink:href="#DejaVuSansMono-65" transform="translate(3251.074219 0)"/>
    </g>
   </g>
   <g id="legend_1">
    <g id="patch_7">
     <path d="M 51.57 85.74875 
L 195.093437 85.74875 
Q 197.093437 85.74875 197.093437 83.74875 
L 197.093437 39.88 
Q 197.093437 37.88 195.093437 37.88 
L 51.57 37.88 
Q 49.57 37.88 49.57 39.88 
L 49.57 83.74875 
Q 49.57 85.74875 51.57 85.74875 
z
" style="opacity: 0.8; stroke: #cccccc; stroke-linejoin: miter"/>
    </g>
    <g id="line2d_32">
     <path d="M 53.57 45.978437 
L 63.57 45.978437 
L 73.57 45.978437 
" style="fill: none; stroke-dasharray: 9.6,2.4,1.5,2.4; stroke-dashoffset: 0; stroke: #c6dbef; stroke-width: 1.5"/>
     <g>
      <use xlink:href="#m3ec8ec98b6" x="63.57" y="45.978437" style="fill: #c6dbef; stroke: #c6dbef"/>
     </g>
    </g>
    <g id="text_34">
     <!-- svtav1_2.3.0-B_p4.csv -->
     <g style="fill: #ffffff" transform="translate(81.57 49.478437) scale(0.1 -0.1)">
      <defs>
       <path id="DejaVuSans-73" d="M 2834 3397 
L 2834 2853 
Q 2591 2978 2328 3040 
Q 2066 3103 1784 3103 
Q 1356 3103 1142 2972 
Q 928 2841 928 2578 
Q 928 2378 1081 2264 
Q 1234 2150 1697 2047 
L 1894 2003 
Q 2506 1872 2764 1633 
Q 3022 1394 3022 966 
Q 3022 478 2636 193 
Q 2250 -91 1575 -91 
Q 1294 -91 989 -36 
Q 684 19 347 128 
L 347 722 
Q 666 556 975 473 
Q 1284 391 1588 391 
Q 1994 391 2212 530 
Q 2431 669 2431 922 
Q 2431 1156 2273 1281 
Q 2116 1406 1581 1522 
L 1381 1569 
Q 847 1681 609 1914 
Q 372 2147 372 2553 
Q 372 3047 722 3315 
Q 1072 3584 1716 3584 
Q 2034 3584 2315 3537 
Q 2597 3491 2834 3397 
z
" transform="scale(0.015625)"/>
       <path id="DejaVuSans-76" d="M 191 3500 
L 800 3500 
L 1894 563 
L 2988 3500 
L 3597 3500 
L 2284 0 
L 1503 0 
L 191 3500 
z
" transform="scale(0.015625)"/>
       <path id="DejaVuSans-74" d="M 1172 4494 
L 1172 3500 
L 2356 3500 
L 2356 3053 
L 1172 3053 
L 1172 1153 
Q 1172 725 1289 603 
Q 1406 481 1766 481 
L 2356 481 
L 2356 0 
L 1766 0 
Q 1100 0 847 248 
Q 594 497 594 1153 
L 594 3053 
L 172 3053 
L 172 3500 
L 594 3500 
L 594 4494 
L 1172 4494 
z
" transform="scale(0.015625)"/>
       <path id="DejaVuSans-61" d="M 2194 1759 
Q 1497 1759 1228 1600 
Q 959 1441 959 1056 
Q 959 750 1161 570 
Q 1363 391 1709 391 
Q 2188 391 2477 730 
Q 2766 1069 2766 1631 
L 2766 1759 
L 2194 1759 
z
M 3341 1997 
L 3341 0 
L 2766 0 
L 2766 531 
Q 2569 213 2275 61 
Q 1981 -91 1556 -91 
Q 1019 -91 701 211 
Q 384 513 384 1019 
Q 384 1609 779 1909 
Q 1175 2209 1959 2209 
L 2766 2209 
L 2766 2266 
Q 2766 2663 2505 2880 
Q 2244 3097 1772 3097 
Q 1472 3097 1187 3025 
Q 903 2953 641 2809 
L 641 3341 
Q 956 3463 1253 3523 
Q 1550 3584 1831 3584 
Q 2591 3584 2966 3190 
Q 3341 2797 3341 1997 
z
" transform="scale(0.015625)"/>
       <path id="DejaVuSans-5f" d="M 3263 -1063 
L 3263 -1509 
L -63 -1509 
L -63 -1063 
L 3263 -1063 
z
" transform="scale(0.015625)"/>
       <path id="DejaVuSans-2d" d="M 313 2009 
L 1997 2009 
L 1997 1497 
L 313 1497 
L 313 2009 
z
" transform="scale(0.015625)"/>
       <path id="DejaVuSans-42" d="M 1259 2228 
L 1259 519 
L 2272 519 
Q 2781 519 3026 730 
Q 3272 941 3272 1375 
Q 3272 1813 3026 2020 
Q 2781 2228 2272 2228 
L 1259 2228 
z
M 1259 4147 
L 1259 2741 
L 2194 2741 
Q 2656 2741 2882 2914 
Q 3109 3088 3109 3444 
Q 3109 3797 2882 3972 
Q 2656 4147 2194 4147 
L 1259 4147 
z
M 628 4666 
L 2241 4666 
Q 2963 4666 3353 4366 
Q 3744 4066 3744 3513 
Q 3744 3084 3544 2831 
Q 3344 2578 2956 2516 
Q 3422 2416 3680 2098 
Q 3938 1781 3938 1306 
Q 3938 681 3513 340 
Q 3088 0 2303 0 
L 628 0 
L 628 4666 
z
" transform="scale(0.015625)"/>
       <path id="DejaVuSans-70" d="M 1159 525 
L 1159 -1331 
L 581 -1331 
L 581 3500 
L 1159 3500 
L 1159 2969 
Q 1341 3281 1617 3432 
Q 1894 3584 2278 3584 
Q 2916 3584 3314 3078 
Q 3713 2572 3713 1747 
Q 3713 922 3314 415 
Q 2916 -91 2278 -91 
Q 1894 -91 1617 61 
Q 1341 213 1159 525 
z
M 3116 1747 
Q 3116 2381 2855 2742 
Q 2594 3103 2138 3103 
Q 1681 3103 1420 2742 
Q 1159 2381 1159 1747 
Q 1159 1113 1420 752 
Q 1681 391 2138 391 
Q 2594 391 2855 752 
Q 3116 1113 3116 1747 
z
" transform="scale(0.015625)"/>
       <path id="DejaVuSans-63" d="M 3122 3366 
L 3122 2828 
Q 2878 2963 2633 3030 
Q 2388 3097 2138 3097 
Q 1578 3097 1268 2742 
Q 959 2388 959 1747 
Q 959 1106 1268 751 
Q 1578 397 2138 397 
Q 2388 397 2633 464 
Q 2878 531 3122 666 
L 3122 134 
Q 2881 22 2623 -34 
Q 2366 -91 2075 -91 
Q 1284 -91 818 406 
Q 353 903 353 1747 
Q 353 2603 823 3093 
Q 1294 3584 2113 3584 
Q 2378 3584 2631 3529 
Q 2884 3475 3122 3366 
z
" transform="scale(0.015625)"/>
      </defs>
      <use xlink:href="#DejaVuSans-73"/>
      <use xlink:href="#DejaVuSans-76" transform="translate(52.099609 0)"/>
      <use xlink:href="#DejaVuSans-74" transform="translate(111.279297 0)"/>
      <use xlink:href="#DejaVuSans-61" transform="translate(150.488281 0)"/>
      <use xlink:href="#DejaVuSans-76" transform="translate(211.767578 0)"/>
      <use xlink:href="#DejaVuSans-31" transform="translate(270.947266 0)"/>
      <use xlink:href="#DejaVuSans-5f" transform="translate(334.570312 0)"/>
      <use xlink:href="#DejaVuSans-32" transform="translate(384.570312 0)"/>
      <use xlink:href="#DejaVuSans-2e" transform="translate(448.193359 0)"/>
      <use xlink:href="#DejaVuSans-33" transform="translate(479.980469 0)"/>
      <use xlink:href="#DejaVuSans-2e" transform="translate(543.603516 0)"/>
      <use xlink:href="#DejaVuSans-30" transform="translate(575.390625 0)"/>
      <use xlink:href="#DejaVuSans-2d" transform="translate(639.013672 0)"/>
      <use xlink:href="#DejaVuSans-42" transform="translate(671.472656 0)"/>
      <use xlink:href="#DejaVuSans-5f" transform="translate(740.076172 0)"/>
      <use xlink:href="#DejaVuSans-70" transform="translate(790.076172 0)"/>
      <use xlink:href="#DejaVuSans-34" transform="translate(853.552734 0)"/>
      <use xlink:href="#DejaVuSans-2e" transform="translate(917.175781 0)"/>
      <use xlink:href="#DejaVuSans-63" transform="translate(948.962891 0)"/>
      <use xlink:href="#DejaVuSans-73" transform="translate(1003.943359 0)"/>
      <use xlink:href="#DejaVuSans-76" transform="translate(1056.042969 0)"/>
     </g>
    </g>
    <g id="line2d_33">
     <path d="M 53.57 60.934687 
L 63.57 60.934687 
L 73.57 60.934687 
" style="fill: none; stroke-dasharray: 9.6,2.4,1.5,2.4; stroke-dashoffset: 0; stroke: #6aaed6; stroke-width: 1.5"/>
     <g>
      <use xlink:href="#m0146d702d1" x="63.57" y="60.934687" style="fill: #6aaed6; stroke: #6aaed6"/>
     </g>
    </g>
    <g id="text_35">
     <!-- svtav1_2.3.0-B_p2.csv -->
     <g style="fill: #ffffff" transform="translate(81.57 64.434687) scale(0.1 -0.1)">
      <use xlink:href="#DejaVuSans-73"/>
      <use xlink:href="#DejaVuSans-76" transform="translate(52.099609 0)"/>
      <use xlink:href="#DejaVuSans-74" transform="translate(111.279297 0)"/>
      <use xlink:href="#DejaVuSans-61" transform="translate(150.488281 0)"/>
      <use xlink:href="#DejaVuSans-76" transform="translate(211.767578 0)"/>
      <use xlink:href="#DejaVuSans-31" transform="translate(270.947266 0)"/>
      <use xlink:href="#DejaVuSans-5f" transform="translate(334.570312 0)"/>
      <use xlink:href="#DejaVuSans-32" transform="translate(384.570312 0)"/>
      <use xlink:href="#DejaVuSans-2e" transform="translate(448.193359 0)"/>
      <use xlink:href="#DejaVuSans-33" transform="translate(479.980469 0)"/>
      <use xlink:href="#DejaVuSans-2e" transform="translate(543.603516 0)"/>
      <use xlink:href="#DejaVuSans-30" transform="translate(575.390625 0)"/>
      <use xlink:href="#DejaVuSans-2d" transform="translate(639.013672 0)"/>
      <use xlink:href="#DejaVuSans-42" transform="translate(671.472656 0)"/>
      <use xlink:href="#DejaVuSans-5f" transform="translate(740.076172 0)"/>
      <use xlink:href="#DejaVuSans-70" transform="translate(790.076172 0)"/>
      <use xlink:href="#DejaVuSans-32" transform="translate(853.552734 0)"/>
      <use xlink:href="#DejaVuSans-2e" transform="translate(917.175781 0)"/>
      <use xlink:href="#DejaVuSans-63" transform="translate(948.962891 0)"/>
      <use xlink:href="#DejaVuSans-73" transform="translate(1003.943359 0)"/>
      <use xlink:href="#DejaVuSans-76" transform="translate(1056.042969 0)"/>
     </g>
    </g>
    <g id="line2d_34">
     <path d="M 53.57 75.890938 
L 63.57 75.890938 
L 73.57 75.890938 
" style="fill: none; stroke-dasharray: 9.6,2.4,1.5,2.4; stroke-dashoffset: 0; stroke: #2070b4; stroke-width: 1.5"/>
     <g>
      <use xlink:href="#md23533520c" x="63.57" y="75.890938" style="fill: #2070b4; stroke: #2070b4"/>
     </g>
    </g>
    <g id="text_36">
     <!-- svtav1_2.3.0-B_p6.csv -->
     <g style="fill: #ffffff" transform="translate(81.57 79.390938) scale(0.1 -0.1)">
      <use xlink:href="#DejaVuSans-73"/>
      <use xlink:href="#DejaVuSans-76" transform="translate(52.099609 0)"/>
      <use xlink:href="#DejaVuSans-74" transform="translate(111.279297 0)"/>
      <use xlink:href="#DejaVuSans-61" transform="translate(150.488281 0)"/>
      <use xlink:href="#DejaVuSans-76" transform="translate(211.767578 0)"/>
      <use xlink:href="#DejaVuSans-31" transform="translate(270.947266 0)"/>
      <use xlink:href="#DejaVuSans-5f" transform="translate(334.570312 0)"/>
      <use xlink:href="#DejaVuSans-32" transform="translate(384.570312 0)"/>
      <use xlink:href="#DejaVuSans-2e" transform="translate(448.193359 0)"/>
      <use xlink:href="#DejaVuSans-33" transform="translate(479.980469 0)"/>
      <use xlink:href="#DejaVuSans-2e" transform="translate(543.603516 0)"/>
      <use xlink:href="#DejaVuSans-30" transform="translate(575.390625 0)"/>
      <use xlink:href="#DejaVuSans-2d" transform="translate(639.013672 0)"/>
      <use xlink:href="#DejaVuSans-42" transform="translate(671.472656 0)"/>
      <use xlink:href="#DejaVuSans-5f" transform="translate(740.076172 0)"/>
      <use xlink:href="#DejaVuSans-70" transform="translate(790.076172 0)"/>
      <use xlink:href="#DejaVuSans-36" transform="translate(853.552734 0)"/>
      <use xlink:href="#DejaVuSans-2e" transform="translate(917.175781 0)"/>
      <use xlink:href="#DejaVuSans-63" transform="translate(948.962891 0)"/>
      <use xlink:href="#DejaVuSans-73" transform="translate(1003.943359 0)"/>
      <use xlink:href="#DejaVuSans-76" transform="translate(1056.042969 0)"/>
     </g>
    </g>
   </g>
  </g>
 </g>
 <defs>
  <clipPath id="p3cb7674048">
   <rect x="44.57" y="32.88" width="664.63" height="357.16"/>
  </clipPath>
 </defs>
</svg>
